<svg xmlns="http://www.w3.org/2000/svg" viewBox="0 0 258.02 60"><defs><style>.cls-1{fill:#5cb8da;}.cls-2{fill:#6dc497;}.cls-3{fill:#4167b0;}.cls-4{fill:#2a9182;}.cls-5{fill:#2987b6;}.cls-6{fill:#175478;}.cls-7{fill:#2250a3;}.cls-8{fill:#263c96;}.cls-9{fill:#2fa35d;}.cls-10{fill:#3d3b3d;}.cls-11{fill:#7f7f81;}.cls-12{fill:#27397b;}.cls-13{fill:#9d9fa2;}.cls-14{fill:#d3da2c;}.cls-15{fill:#76bc43;}.cls-16{fill:#2cb5bb;}.cls-17{fill:#59b65e;}.cls-18{fill:#358aca;}.cls-19{fill:#1e3c72;}.cls-20{fill:none;stroke:#3d3b3d;stroke-miterlimit:10;stroke-width:0.5px;}</style></defs><title>Ar_logo_landscape</title><g id="Layer_2" data-name="Layer 2"><g id="Layer_1-2" data-name="Layer 1"><polygon class="cls-1" points="39.36 31.2 41.68 29.5 35.24 21.28 32.78 23.98 39.36 31.2"/><polygon class="cls-2" points="49.74 42.61 51.48 42.01 44.42 33 42.22 34.34 49.74 42.61"/><polygon class="cls-1" points="15.82 42.61 0 60 21.2 44.49 15.82 42.61"/><polygon class="cls-3" points="23.35 34.34 21.14 33 14.09 42.01 15.82 42.61 23.35 34.34"/><polygon class="cls-1" points="32.78 23.98 30.32 21.28 23.89 29.5 26.21 31.2 32.78 23.98"/><polygon class="cls-4" points="35.82 38.23 44.37 44.49 49.74 42.61 42.22 34.35 35.82 38.23"/><polygon class="cls-5" points="39.36 31.2 32.78 23.98 26.21 31.2 32.78 36.01 39.36 31.2"/><polygon class="cls-1" points="35.82 38.23 42.22 34.35 39.36 31.2 32.78 36.01 35.82 38.23"/><polygon class="cls-1" points="32.78 36.01 26.21 31.2 23.35 34.34 29.75 38.23 32.78 36.01"/><polygon class="cls-2" points="32.78 40.08 41.63 45.45 44.37 44.49 35.82 38.23 32.78 40.08"/><polygon class="cls-3" points="23.94 45.45 32.78 48.54 41.63 45.45 32.78 40.08 23.94 45.45"/><polygon class="cls-3" points="23.35 34.34 15.82 42.61 21.2 44.49 29.75 38.23 23.35 34.34"/><polygon class="cls-3" points="29.75 38.23 21.2 44.49 23.94 45.45 32.78 40.08 29.75 38.23"/><polygon class="cls-3" points="32.78 18.14 26.96 10.71 24.62 15.01 30.33 21.28 32.78 18.14"/><polygon points="38.64 10.66 32.83 0 38.63 10.67 38.64 10.66"/><polygon class="cls-4" points="41.68 29.5 46.86 25.71 40.99 14.96 35.24 21.28 41.68 29.5"/><polygon class="cls-2" points="44.42 33 49.24 30.08 46.86 25.71 41.68 29.5 44.42 33"/><polygon class="cls-6" points="38.63 10.67 32.83 0 26.96 10.71 32.78 18.14 38.63 10.67"/><polygon class="cls-7" points="30.33 21.28 24.61 15.01 18.74 25.74 23.89 29.5 30.33 21.28"/><polygon class="cls-8" points="21.14 33 16.36 30.1 10.53 40.76 14.09 42.01 21.14 33"/><polygon class="cls-3" points="14.09 42.01 10.53 40.76 0 60 14.09 42.01"/><polygon class="cls-3" points="23.89 29.5 18.74 25.74 16.36 30.1 21.14 33 23.89 29.5"/><polygon class="cls-2" points="38.64 10.68 38.64 10.67 32.78 18.14 35.24 21.28 40.99 14.96 38.64 10.66 38.64 10.67 38.64 10.68"/><polygon class="cls-3" points="32.78 48.54 65.57 60 41.63 45.45 32.78 48.54"/><polygon class="cls-9" points="51.48 42.01 55.06 40.76 49.24 30.08 44.42 33 51.48 42.01"/><polygon class="cls-2" points="23.94 45.45 0 60 32.78 48.54 23.94 45.45"/><polygon class="cls-2" points="65.57 60 55.06 40.76 51.48 42.01 65.57 60"/><polygon class="cls-1" points="44.37 44.49 65.57 60 49.74 42.61 44.37 44.49"/><polygon class="cls-10" points="126.89 26.28 126.89 27.29 122.37 27.93 122.37 26.93 126.89 26.28"/><path class="cls-10" d="M105.77,16.27v9a2.36,2.36,0,0,1-2.35,2.35H99.16V25.41h4.26c.08,0,.12,0,.12-.1v-9Z"/><path class="cls-10" d="M125,18.62h-3.51c-.08,0-.12,0-.12.11v3.12a.11.11,0,0,0,.12.12H125a.11.11,0,0,0,.12-.12V18.73c0-.07,0-.11-.12-.11m0-2.25a2.36,2.36,0,0,1,2.35,2.36V24.2H105.75V22h13.36V18.73a2.36,2.36,0,0,1,2.35-2.36Z"/><path class="cls-10" d="M91.36,21.34v-4.9h2.23v4.9a2.36,2.36,0,0,1-2.35,2.35h-3a2.36,2.36,0,0,1-2.35-2.35V16.47h2.23v4.87a.11.11,0,0,0,.12.12h3a.11.11,0,0,0,.12-.12"/><path class="cls-10" d="M86.2,21.34v-4.9h2.24v4.9a2.36,2.36,0,0,1-2.35,2.35h-3a2.36,2.36,0,0,1-2.35-2.35V16.47H83v4.87a.11.11,0,0,0,.12.12h3c.07,0,.11,0,.11-.12"/><path class="cls-10" d="M76.23,16.41v8.75a.11.11,0,0,0,.12.12h4.19a.11.11,0,0,0,.12-.12V16.41h2.25v8.75a2.36,2.36,0,0,1-2.37,2.37H76.35A2.36,2.36,0,0,1,74,25.16V16.41Z"/><rect class="cls-10" x="96.37" y="10.31" width="2.25" height="13.38"/><path class="cls-10" d="M114.65,39.15V37.71h-5.07V39c0,.08,0,.11.1.11Zm-.11-7a2.15,2.15,0,0,1,2.14,2.14v6.85h-7A2.13,2.13,0,0,1,107.54,39V35.66h7.11V34.33a.1.1,0,0,0-.11-.11h-7v-2Z"/><path class="cls-10" d="M101,32.13h5v2h-5c-.08,0-.11,0-.11.11v6.85h-2V34.28A2.15,2.15,0,0,1,101,32.13"/><polygon class="cls-10" points="80.17 35.01 84.22 30.17 86.47 30.17 86.47 41.34 84.4 41.34 84.4 33.14 80.17 38.19 75.92 33.14 75.92 41.34 73.87 41.34 73.87 30.17 76.1 30.17 80.17 35.01"/><path class="cls-10" d="M127.32,34.31v.38h-2v-.38a.1.1,0,0,0-.11-.11h-4.81c-.07,0-.1,0-.1.11v1.23c0,.06,0,.09.1.09h4.81a2.1,2.1,0,0,1,2.12,2.12V39a2.1,2.1,0,0,1-2.12,2.12h-4.81A2.12,2.12,0,0,1,118.27,39v-.39h2V39c0,.07,0,.11.1.11h4.81a.1.1,0,0,0,.11-.11V37.75c0-.06,0-.09-.11-.09h-4.81a2.13,2.13,0,0,1-2.12-2.12V34.31a2.12,2.12,0,0,1,2.12-2.12h4.81a2,2,0,0,1,1.51.62,2,2,0,0,1,.61,1.5"/><path class="cls-10" d="M90.05,34.17v1.44h5.08V34.27c0-.07,0-.1-.11-.1Zm.11,7A2.15,2.15,0,0,1,88,39V32.13h7a2.15,2.15,0,0,1,2.14,2.14v3.39H90.05V39a.1.1,0,0,0,.11.11h7v2Z"/><path class="cls-11" d="M232.26,34.07v.06c0,4.33-3.16,7.51-8.28,7.51a11.17,11.17,0,0,1-9-3.91l3.48-3.31A7,7,0,0,0,224,37.17a2.88,2.88,0,0,0,3.24-2.48c0-.1,0-.21,0-.31h0c0-2-1.66-3.08-4.51-3.08h-2.1l-.79-3.21,7.38-7.41-2.95,1.95h-8V18.26H231.9v3.81l-5.82,5.54c3.13.52,6.18,2.16,6.18,6.43M217.81,7.83a3.59,3.59,0,0,1,3.45-3.74h2.5l-.62.32V10a5.36,5.36,0,0,0,.1,1.06,2,2,0,0,0,.15.49h-1.94A3.63,3.63,0,0,1,217.81,8V7.83Zm3.59,4.76h2.1v-.68a1.49,1.49,0,0,0,.6.51,2.18,2.18,0,0,0,.91.18H243.5V3.1h-1v8.49H225.13a1.25,1.25,0,0,1-.47-.07.73.73,0,0,1-.29-.26,1.41,1.41,0,0,1-.16-.49c0-.24,0-.48,0-.71v-7h-2.76a4.65,4.65,0,0,0-4.7,4.59v.14h0a4.6,4.6,0,0,0,4.5,4.7h.17M251,2.1h-2.22V1.3a1.3,1.3,0,0,1,.31-1,1.23,1.23,0,0,1,.89-.34h.72V.7H250a.42.42,0,0,0-.33.08.47.47,0,0,0-.08.3V1.3h1.39v.79Zm2.61,10.6a3.18,3.18,0,0,1-.82-.11l.26-1h.51a1,1,0,0,0,.46-.08.57.57,0,0,0,.29-.26,1.16,1.16,0,0,0,.07-.42c0-.23,0-.47,0-.71v-7h1v7.05a6.12,6.12,0,0,1-.09,1,2,2,0,0,1-.33.81,1.42,1.42,0,0,1-.6.51,2,2,0,0,1-.91.18M224.17,2.09h-1v-1h1Zm22.18,3.47a2.29,2.29,0,0,1,.61-.77,2.7,2.7,0,0,1,.87-.5,3.08,3.08,0,0,1,1-.17h1.63l-.57.29V8.92h-1a3.39,3.39,0,0,1-1.05-.16,2.62,2.62,0,0,1-.88-.45,2,2,0,0,1-.58-.75,2.18,2.18,0,0,1-.2-1,2.28,2.28,0,0,1,.23-1m0,3.56a4,4,0,0,0,1.31.6,6.62,6.62,0,0,0,1.6.2h.26l.34-.71v1a1.28,1.28,0,0,1-.45,1.13,2.17,2.17,0,0,1-1.31.34,3.84,3.84,0,0,1-.83-.09,5.74,5.74,0,0,1-.8-.26l-.31,1a9.49,9.49,0,0,0,1,.33,3.88,3.88,0,0,0,.9.1,2.82,2.82,0,0,0,2.15-.69,2.64,2.64,0,0,0,.67-1.88v-7h-1.62a5.23,5.23,0,0,0-1.71.27,4,4,0,0,0-1.3.71,3.26,3.26,0,0,0-.85,1.1,3.08,3.08,0,0,0-.26,1.34,3.14,3.14,0,0,0,.34,1.53,2.93,2.93,0,0,0,.91,1m-24.3-7h-1v-1h1Zm-10.43,1h1v9.45h-.84L205.17,4l.6,1.39v7.1h-1V3.09h1l6.37,8.13-.45-1.16Zm-39.39,9.53-4.08-9.52h1.19L170,4.5l2.79,6.73.26.64-.11-1,3.24-7.74h1.17l-4.11,9.52Zm18.09-9.52h1.07v9.44h-1.07Zm11.44,4.74a3.71,3.71,0,0,1-3.52,3.9h-.18A3.76,3.76,0,0,1,194.41,8V7.83h0a3.73,3.73,0,0,1,3.52-3.91h.2a3.77,3.77,0,0,1,3.75,3.77.76.76,0,0,1,0,.15Zm-3.7-4.91a4.81,4.81,0,0,0-4.86,4.75v.16h0a4.84,4.84,0,0,0,9.67.5,4.17,4.17,0,0,0,0-.5h0A4.76,4.76,0,0,0,198.34,3h-.2m-9.53,7h0c0,1.62-1.3,2.61-3.23,2.61a5.53,5.53,0,0,1-3.92-1.51l.67-.78a4.51,4.51,0,0,0,3.25,1.3c1.3,0,2.11-.68,2.11-1.6h0c0-.88-.47-1.39-2.47-1.8S181.84,7,181.84,5.49h0a2.79,2.79,0,0,1,2.95-2.62H185A5,5,0,0,1,188.28,4l-.62.83a4.21,4.21,0,0,0-2.68-1c-1.22,0-2,.68-2,1.53h0c0,.89.49,1.39,2.61,1.84s3.09,1.22,3.09,2.61m-8.75,2.6H178.8V3.09h1.07Zm62.26,1.06h1v1h-1Zm-2,0h1v1h-1ZM176.72,36.88h8.77v4.36h-17v-4L176.08,31c2.9-2.36,4-3.6,4-5.52a2.82,2.82,0,0,0-2.63-3,3.53,3.53,0,0,0-.46,0c-1.78,0-3,1-4.71,3.08l-3.55-2.84C171,19.64,173.23,18,177.38,18c4.77,0,7.93,2.79,7.93,7.08h0c0,3.84-2,5.74-6.05,8.89l-5.07,3.88-1,.76Zm76-7a6.87,6.87,0,0,1-6.6,7.14h-.32a7,7,0,0,1-7-7,1.93,1.93,0,0,1,0-.24v-.06a6.87,6.87,0,0,1,6.59-7.14h.32a7,7,0,0,1,7,7v.3Zm-6.92-11.93A11.88,11.88,0,0,0,233.57,29.4c0,.13,0,.25,0,.37v.07a11.75,11.75,0,0,0,11.73,11.75h.47A11.88,11.88,0,0,0,258,30.08c0-.12,0-.25,0-.37v-.07A11.74,11.74,0,0,0,246.29,17.9h-.47"/><polygon class="cls-12" points="199.25 16.39 200.41 17.52 199.3 18.68 198.13 17.55 199.25 16.39"/><polygon class="cls-13" points="201.93 17.55 203.09 18.68 204.21 17.52 203.05 16.39 201.93 17.55"/><polygon class="cls-14" points="200.28 19.02 201.18 19.89 202.06 18.99 201.16 18.12 200.28 19.02"/><polygon class="cls-15" points="203.61 19.51 204.52 20.39 205.38 19.48 204.48 18.61 203.61 19.51"/><polygon class="cls-14" points="198.79 20.4 199.71 21.27 200.57 20.37 199.67 19.5 198.79 20.4"/><polygon class="cls-16" points="202.75 21.38 201.85 20.52 202.71 19.6 203.62 20.48 202.75 21.38"/><polygon class="cls-15" points="201.29 22.16 200.65 21.55 201.26 20.92 201.9 21.52 201.29 22.16"/><polygon class="cls-17" points="203.06 22.03 203.7 22.64 204.31 22 203.67 21.39 203.06 22.03"/><rect class="cls-18" x="208.33" y="16.96" width="2" height="2" transform="translate(0.2 38.11) rotate(-10.41)"/><rect class="cls-19" x="205.86" y="17.85" width="1.62" height="1.62" transform="translate(0.02 37.54) rotate(-10.38)"/><rect class="cls-16" x="208.94" y="20.06" width="1.62" height="1.62" transform="translate(-0.32 38.21) rotate(-10.4)"/><rect class="cls-14" x="206.72" y="20.34" width="1.25" height="1.25" transform="translate(-0.38 37.77) rotate(-10.4)"/><rect class="cls-13" x="209.13" y="22.67" width="1.25" height="1.25" transform="translate(-0.76 38.25) rotate(-10.4)"/><rect class="cls-16" x="204.86" y="20.84" width="1.25" height="1.25" transform="matrix(0.98, -0.18, 0.18, 0.98, -0.5, 37.45)"/><rect class="cls-15" x="207.1" y="22.45" width="1.25" height="1.25" transform="translate(-0.75 37.88) rotate(-10.4)"/><rect class="cls-13" x="205.5" y="22.63" width="0.89" height="0.89" transform="translate(-0.78 37.63) rotate(-10.42)"/><rect class="cls-17" x="207.18" y="24.43" width="0.89" height="0.89" transform="translate(-1.08 37.82) rotate(-10.38)"/><polygon class="cls-12" points="214.21 23.66 213.35 25.47 215.16 26.33 216.02 24.52 214.21 23.66"/><polygon class="cls-16" points="211.63 22.82 210.94 24.27 212.4 24.96 213.09 23.52 211.63 22.82"/><polygon class="cls-15" points="212.81 26.4 212.12 27.86 213.59 28.55 214.28 27.09 212.81 26.4"/><polygon class="cls-14" points="210.91 25.32 210.38 26.44 211.51 26.98 212.05 25.85 210.91 25.32"/><polygon class="cls-14" points="211.49 28.61 210.95 29.75 212.09 30.28 212.62 29.15 211.49 28.61"/><polygon class="cls-18" points="209.11 24.64 208.58 25.77 209.71 26.31 210.25 25.17 209.11 24.64"/><polygon class="cls-13" points="209.99 27.26 209.45 28.39 210.59 28.93 211.12 27.79 209.99 27.26"/><rect class="cls-15" x="208.38" y="26.6" width="0.89" height="0.89" transform="translate(94.51 203.89) rotate(-64.5)"/><rect class="cls-16" x="208.69" y="29.03" width="0.89" height="0.89" transform="translate(92.59 205.6) rotate(-64.53)"/><polygon class="cls-18" points="215.19 32.34 213.43 33.31 214.39 35.07 216.15 34.09 215.19 32.34"/><polygon class="cls-16" points="213.59 30.15 212.18 30.92 212.95 32.34 214.37 31.56 213.59 30.15"/><polygon class="cls-16" points="212.45 33.75 211.04 34.53 211.81 35.94 213.23 35.16 212.45 33.75"/><polygon class="cls-12" points="211.55 31.76 210.44 32.36 211.04 33.45 212.15 32.85 211.55 31.76"/><polygon class="cls-17" points="210.08 34.77 208.97 35.37 209.57 36.48 210.68 35.87 210.08 34.77"/><polygon class="cls-19" points="210.48 30.17 209.37 30.77 209.99 31.86 211.08 31.26 210.48 30.17"/><polygon class="cls-14" points="209.65 32.79 208.55 33.4 209.15 34.5 210.26 33.9 209.65 32.79"/><rect class="cls-13" x="208.39" y="31.51" width="0.89" height="0.89" transform="translate(10.29 104.14) rotate(-28.68)"/><rect class="cls-16" x="207.22" y="33.65" width="0.89" height="0.89" transform="translate(9.12 103.84) rotate(-28.68)"/><rect class="cls-15" x="208.76" y="39.82" width="2.01" height="2.01" transform="translate(143.58 244.01) rotate(-82.97)"/><rect class="cls-19" x="209.16" y="37.14" width="1.6" height="1.62" transform="translate(146.53 241.67) rotate(-82.95)"/><rect class="cls-16" x="206.13" y="39.39" width="1.62" height="1.62" transform="translate(141.53 240.61) rotate(-82.92)"/><rect class="cls-15" x="206.95" y="37.27" width="1.25" height="1.25" transform="translate(144.56 239.27) rotate(-82.97)"/><rect class="cls-13" x="203.98" y="38.86" width="1.25" height="1.25" transform="translate(140.38 237.72) rotate(-82.97)"/><rect class="cls-13" x="207.02" y="35.36" width="1.25" height="1.25" transform="translate(146.41 237.63) rotate(-82.94)"/><rect class="cls-15" x="204.8" y="36.99" width="1.25" height="1.27" transform="translate(142.8 236.86) rotate(-82.93)"/><rect class="cls-13" x="205.53" y="35.48" width="0.89" height="0.89" transform="translate(145.08 235.94) rotate(-82.96)"/><rect class="cls-13" x="203.31" y="36.53" width="0.89" height="0.89" transform="translate(142.09 234.66) rotate(-82.96)"/><polygon class="cls-14" points="202.93 43.61 201.46 42.24 200.09 43.72 201.56 45.09 202.93 43.61"/><polygon class="cls-15" points="202.67 15.49 201.18 14.13 199.81 15.6 201.29 16.97 202.67 15.49"/><polygon class="cls-16" points="204.51 41.41 203.32 40.31 202.22 41.5 203.41 42.59 204.51 41.41"/><polygon class="cls-15" points="200.72 41.47 199.54 40.38 198.44 41.55 199.62 42.65 200.72 41.47"/><polygon class="cls-18" points="202.34 39.99 201.42 39.13 200.56 40.05 201.48 40.9 202.34 39.99"/><polygon class="cls-14" points="198.08 38.68 199 39.54 198.14 40.46 197.22 39.61 198.08 38.68"/><polygon class="cls-14" points="203.53 38.47 202.6 37.61 201.74 38.54 202.67 39.39 203.53 38.47"/><polygon class="cls-13" points="200.75 38.51 199.83 37.66 198.98 38.58 199.9 39.44 200.75 38.51"/><polygon class="cls-19" points="201.29 36.86 201.93 37.46 201.32 38.11 200.67 37.51 201.29 36.86"/><polygon class="cls-13" points="198.86 36.41 199.51 37.01 198.91 37.66 198.26 37.06 198.86 36.41"/><rect class="cls-18" x="192.14" y="40.16" width="2.01" height="2.01" transform="translate(-4.32 38.75) rotate(-11.33)"/><rect class="cls-16" x="195.15" y="39.63" width="1.62" height="1.62" transform="translate(-4.13 39.32) rotate(-11.34)"/><rect class="cls-15" x="192.04" y="37.49" width="1.62" height="1.62" transform="translate(-3.77 38.7) rotate(-11.35)"/><rect class="cls-14" x="194.61" y="37.53" width="1.25" height="1.25" transform="translate(-3.69 39.17) rotate(-11.35)"/><rect class="cls-12" x="196.47" y="36.99" width="1.25" height="1.25" transform="translate(-3.55 39.52) rotate(-11.35)"/><rect class="cls-18" x="194.19" y="35.42" width="1.25" height="1.25" transform="translate(-3.28 39.05) rotate(-11.35)"/><rect class="cls-15" x="196.17" y="35.58" width="0.89" height="0.89" transform="matrix(0.98, -0.2, 0.2, 0.98, -3.25, 39.22)"/><rect class="cls-13" x="194.46" y="33.82" width="0.89" height="0.89" transform="translate(-2.93 38.99) rotate(-11.34)"/><polygon class="cls-16" points="188.34 35.58 189.17 33.75 187.33 32.92 186.5 34.74 188.34 35.58"/><polygon class="cls-14" points="190.93 36.37 191.6 34.9 190.14 34.23 189.46 35.71 190.93 36.37"/><polygon class="cls-18" points="189.68 32.81 190.34 31.34 188.87 30.68 188.21 32.13 189.68 32.81"/><rect class="cls-16" x="190.67" y="32.4" width="1.25" height="1.25" transform="translate(81.85 193.37) rotate(-65.48)"/><polygon class="cls-13" points="193.13 36.73 193.66 35.58 192.51 35.06 191.99 36.2 193.13 36.73"/><rect class="cls-12" x="190.03" y="29.12" width="1.25" height="1.25" transform="translate(84.38 190.8) rotate(-65.45)"/><rect class="cls-17" x="192.47" y="33.06" width="1.25" height="1.25" transform="translate(82.2 195.31) rotate(-65.44)"/><rect class="cls-14" x="191.56" y="30.45" width="1.25" height="1.25" transform="translate(84.01 192.94) rotate(-65.43)"/><rect class="cls-19" x="193.22" y="31.65" width="0.89" height="0.89" transform="translate(83.89 194.84) rotate(-65.41)"/><rect class="cls-15" x="192.87" y="29.23" width="0.89" height="0.89" transform="translate(85.91 193.12) rotate(-65.42)"/><polygon class="cls-16" points="187.21 26.91 188.96 25.91 187.96 24.18 186.21 25.17 187.21 26.91"/><polygon class="cls-15" points="188.84 29.07 190.25 28.27 189.44 26.88 188.05 27.68 188.84 29.07"/><polygon class="cls-19" points="189.93 25.45 191.32 24.65 190.53 23.25 189.12 24.05 189.93 25.45"/><polygon class="cls-18" points="190.87 27.44 191.96 26.81 191.34 25.72 190.24 26.34 190.87 27.44"/><polygon class="cls-15" points="192.29 24.39 193.38 23.78 192.76 22.68 191.66 23.31 192.29 24.39"/><polygon class="cls-16" points="191.96 29.02 193.04 28.39 192.43 27.3 191.34 27.92 191.96 29.02"/><polygon class="cls-14" points="192.74 26.36 193.84 25.75 193.21 24.65 192.12 25.27 192.74 26.36"/><polygon class="cls-13" points="194.16 27.36 193.4 27.81 192.97 27.04 193.74 26.59 194.16 27.36"/><polygon class="cls-15" points="195.31 25.2 194.54 25.63 194.11 24.87 194.88 24.43 195.31 25.2"/><rect class="cls-15" x="191.49" y="17.33" width="2.01" height="2.01" transform="translate(153.8 207.79) rotate(-83.9)"/><rect class="cls-13" x="191.54" y="20.41" width="1.6" height="1.62" transform="translate(150.8 210.21) rotate(-83.9)"/><rect class="cls-16" x="194.53" y="18.11" width="1.6" height="1.62" transform="translate(155.77 211.13) rotate(-83.9)"/><rect class="cls-14" x="194.11" y="20.6" width="1.25" height="1.25" transform="translate(152.94 212.6) rotate(-83.9)"/><rect class="cls-18" x="197.04" y="18.96" width="1.25" height="1.25" transform="translate(157.25 214.07) rotate(-83.92)"/><rect class="cls-16" x="194.05" y="22.52" width="1.25" height="1.25" transform="translate(150.97 214.27) rotate(-83.9)"/><rect class="cls-15" x="196.26" y="20.84" width="1.25" height="1.25" transform="translate(154.59 214.94) rotate(-83.89)"/><rect class="cls-19" x="195.94" y="22.73" width="0.89" height="0.89" transform="translate(152.47 215.98) rotate(-83.9)"/><rect class="cls-13" x="198.17" y="21.87" width="0.88" height="0.88" transform="translate(154.51 217.24) rotate(-83.66)"/><path class="cls-11" d="M207.59,30.84a4,4,0,0,0-.8-.33,4.65,4.65,0,0,0-2.19-.16,4.43,4.43,0,0,0-.95.25h-.09l-.51.22-.43.23c-.33.2-.65.42-1,.65a20.64,20.64,0,0,1-.1-5.09h0c.76.48.55,1.81.39,2.19h0a2.35,2.35,0,0,0,.29-2.61h0a2.26,2.26,0,0,1,.34.35,2.13,2.13,0,0,1,.43,1.14,4.17,4.17,0,0,1,0,.5v.12h0a2.18,2.18,0,0,0,0-2,2.56,2.56,0,0,0-.43-.59l-.17-.16h.17a1.75,1.75,0,0,1,.43.22,1.86,1.86,0,0,1,.6.81,2.06,2.06,0,0,1,.14.73h0a1.8,1.8,0,0,0-.16-1.5,1.73,1.73,0,0,0-.6-.57,1.89,1.89,0,0,0-.43-.2h0a3.08,3.08,0,0,1,.43,0,1.58,1.58,0,0,1,.6.24,1.3,1.3,0,0,1,.41.43h0a1.19,1.19,0,0,0-.42-.81,1.5,1.5,0,0,0-.6-.31,1.55,1.55,0,0,0-.43,0,1.21,1.21,0,0,0-.53.09h0a1,1,0,0,1,.54-.38,1,1,0,0,1,.43,0,.86.86,0,0,1,.36.08h0a1.32,1.32,0,0,0-.8-.43,1.06,1.06,0,0,0-1,.51h0l-.14-.29a3.52,3.52,0,0,1-.24-.78h0a3,3,0,0,1-.23.78l-.15.29h0a1.1,1.1,0,0,0-1.52-.36,1.15,1.15,0,0,0-.3.28h0a1.14,1.14,0,0,1,1.3.35h0a1.58,1.58,0,0,0-1.69.42,1.18,1.18,0,0,0-.28.66h0a1.35,1.35,0,0,1,.26-.32,1.75,1.75,0,0,1,1.37-.37h0a1.83,1.83,0,0,0-1.37,1.1,2,2,0,0,0,0,1.22h0a1.81,1.81,0,0,1,1.31-1.78h0a2.21,2.21,0,0,0-.6,2.74h0a2.23,2.23,0,0,1,.76-2.1h0a2.32,2.32,0,0,0,.28,2.6h0c-.15-.37-.36-1.7.39-2.19h0a20.25,20.25,0,0,1-.1,5.1,7.85,7.85,0,0,0-1.89-1.12l-.24-.08a5.12,5.12,0,0,0-1.78-.25,4.68,4.68,0,0,0-1.84.47l-.19.1h.17a5,5,0,0,1,1.84-.19,5.54,5.54,0,0,1,1.79.49,9.25,9.25,0,0,1,2.13,1.38,26.11,26.11,0,0,1-2.13,1.81h-.07a.49.49,0,0,0-.69-.12.53.53,0,0,0-.19.29.48.48,0,0,0,.09.43.71.71,0,0,0,.86.13,11.88,11.88,0,0,0,2.35-2L201,33l.23.22,1.19,1.11.43.38a3.22,3.22,0,0,0,.6.42.8.8,0,0,0,1,0h0a.55.55,0,0,0,.09-.43.5.5,0,0,0-.38-.37.51.51,0,0,0-.51.2l-.2-.13a7,7,0,0,1-.6-.48l-.44-.38-1-.86a11,11,0,0,1,1-.73l.44-.28.6-.32a6,6,0,0,1,.95-.37,5.06,5.06,0,0,1,2.19-.13,5.49,5.49,0,0,1,.78.18h0"/><path class="cls-11" d="M200.49,52h.57V46.81h-.57Zm-15.14-.57-.9-2.2a2.25,2.25,0,0,1,.68-.41,2,2,0,0,1,.73-.13,2.08,2.08,0,0,1,.77.16,2.16,2.16,0,0,1,.65.39l-.9,2.2Zm-3.18,0h-.59a2.1,2.1,0,0,1-.61-.09,1.54,1.54,0,0,1-.51-.26,1.18,1.18,0,0,1-.34-.43,1.29,1.29,0,0,1-.13-.58,1.25,1.25,0,0,1,.13-.57,1.51,1.51,0,0,1,.35-.44,1.68,1.68,0,0,1,.5-.29,1.65,1.65,0,0,1,.58-.1h.59Zm16.06,0h-.95a1.94,1.94,0,0,1-.79-.14,1.19,1.19,0,0,1-.46-.43,2.44,2.44,0,0,0,0-.54V48.48h-.52v2a1.17,1.17,0,0,1-.28.8,1,1,0,0,1-.8.3,1.44,1.44,0,0,1-.46-.08,1.39,1.39,0,0,1-.37-.22,1.14,1.14,0,0,1-.23-.33.86.86,0,0,1-.09-.39v-2h-.58v2a1.2,1.2,0,0,1-.07.46.83.83,0,0,1-.23.3.85.85,0,0,1-.31.17,1.09,1.09,0,0,1-.36,0h-1.12V48.48H190v3h-3L188,49a3.66,3.66,0,0,0-.5-.38,3.5,3.5,0,0,0-.53-.31,2.92,2.92,0,0,0-.56-.21,2,2,0,0,0-1.12,0,2.69,2.69,0,0,0-.56.21,2.9,2.9,0,0,0-.54.31,4.45,4.45,0,0,0-.48.38l1,2.41h-2V48.11h-.92a3,3,0,0,0-1,.16,2.27,2.27,0,0,0-.76.42,1.82,1.82,0,0,0-.48.62,1.92,1.92,0,0,0-.17.78,1.78,1.78,0,0,0,.2.88,1.67,1.67,0,0,0,.52.6,2.27,2.27,0,0,0,.76.34,3.91,3.91,0,0,0,.91.11h.35v.15a.74.74,0,0,1-.26.65,1.26,1.26,0,0,1-.73.2h-.48a4,4,0,0,1-.49-.17l-.23.52.59.18a2.26,2.26,0,0,0,.52,0,1.64,1.64,0,0,0,1.22-.4,1.51,1.51,0,0,0,.38-1.09V52h9a1.59,1.59,0,0,0,.74-.18,1.39,1.39,0,0,0,.53-.49,1.44,1.44,0,0,0,.58.54,1.81,1.81,0,0,0,.86.19,2,2,0,0,0,.89-.18,1.32,1.32,0,0,0,.56-.56,1.44,1.44,0,0,0,.18.25,1.39,1.39,0,0,0,.27.21,1.56,1.56,0,0,0,.41.15,1.48,1.48,0,0,0,.42,0h1.66V46.68h-.58v4.59Zm51.86-.26a1.58,1.58,0,0,1-.33.48,1.37,1.37,0,0,1-.48.31,1.53,1.53,0,0,1-.6.12,1.42,1.42,0,0,1-1.06-.44,1.49,1.49,0,0,1-.41-1.06,1.62,1.62,0,0,1,.11-.58,1.6,1.6,0,0,1,.32-.49,1.27,1.27,0,0,1,.47-.32,1.22,1.22,0,0,1,.6-.12,1.62,1.62,0,0,1,.61.12,1.52,1.52,0,0,1,.48.31,1.58,1.58,0,0,1,.33.48,1.48,1.48,0,0,1,.11.62,1.39,1.39,0,0,1-.11.6m-5.61,0a1.43,1.43,0,0,1-.81.79,1.54,1.54,0,0,1-1.19,0,1.67,1.67,0,0,1-.47-.33,1.46,1.46,0,0,1-.41-1,1.71,1.71,0,0,1,.11-.59,1.55,1.55,0,0,1,.32-.48,1.43,1.43,0,0,1,.47-.33,1.36,1.36,0,0,1,.6-.11,1.41,1.41,0,0,1,.61.11,1.55,1.55,0,0,1,.48.32,1.47,1.47,0,0,1,.33.48,1.58,1.58,0,0,1,.12.61,1.53,1.53,0,0,1-.12.6m-14.06.26h-.57a2.16,2.16,0,0,1-.62-.09,1.47,1.47,0,0,1-.49-.27,1.41,1.41,0,0,1-.34-.43,1.43,1.43,0,0,1-.12-.58,1.24,1.24,0,0,1,.13-.56,1.51,1.51,0,0,1,.35-.44,1.68,1.68,0,0,1,.5-.29,1.84,1.84,0,0,1,.57-.09h.58V51.5Zm22.17,0H250.6a2,2,0,0,0,.18-.85,2.15,2.15,0,0,0-.16-.83,2,2,0,0,0-1.11-1.11,2.12,2.12,0,0,0-.83-.16,2.06,2.06,0,0,0-.81.17,2.11,2.11,0,0,0-1.3,2,1.62,1.62,0,0,0,0,.44,2.16,2.16,0,0,0,.13.41H245a2.09,2.09,0,0,0,.2-.92,2.15,2.15,0,0,0-.16-.83,2,2,0,0,0-1.11-1.11,2.15,2.15,0,0,0-.83-.16,2,2,0,0,0-.81.17A2.06,2.06,0,0,0,241,50.62a1.62,1.62,0,0,0,0,.44,1.87,1.87,0,0,0,.13.4h-1.83v-4.6h-.57v4.59h-1.84v-.89a2.16,2.16,0,0,0-.09-.62,1.28,1.28,0,0,0-.28-.51,1.55,1.55,0,0,0-.5-.38,1.79,1.79,0,0,0-.72-.12h-2.61l1.08-2.07h-.62l-1,2.06a1,1,0,0,0,.09.33,1.06,1.06,0,0,0,.17.26h2.94a1.09,1.09,0,0,1,.47.08.74.74,0,0,1,.33.22.76.76,0,0,1,.17.32,2.94,2.94,0,0,1,0,.42v.89H231V48.11h-.91a3.27,3.27,0,0,0-1,.14,2.55,2.55,0,0,0-.76.41,1.84,1.84,0,0,0-.65,1.41,1.77,1.77,0,0,0,.2.87,1.67,1.67,0,0,0,.52.6,2.11,2.11,0,0,0,.76.35,3.44,3.44,0,0,0,.91.12h11.46a2.11,2.11,0,0,0,.67.48,1.89,1.89,0,0,0,.85.19,2.35,2.35,0,0,0,.86-.17,2.07,2.07,0,0,0,.69-.49h2.54a2,2,0,0,0,.67.49,2,2,0,0,0,.83.18,2.27,2.27,0,0,0,.86-.17,2.09,2.09,0,0,0,.69-.48h2.94V46.82h-.58v4.59Zm2.26.58h.57V46.86h-.65Zm-42.58,1.3h.6v-.59h-.6ZM218,51.54l-.9-2.2a2.11,2.11,0,0,1,1.41-.54,2,2,0,0,1,.77.16,2.25,2.25,0,0,1,.65.39l-.9,2.2Zm4.1,0h-2.53l1-2.41a5.85,5.85,0,0,0-.49-.38,3.6,3.6,0,0,0-.54-.31,2.92,2.92,0,0,0-.56-.21,2,2,0,0,0-1.12,0,2.92,2.92,0,0,0-.56.21,3.6,3.6,0,0,0-.54.31,5.71,5.71,0,0,0-.48.38l1,2.41H215.2V48.11h-.57v4.06a2.8,2.8,0,0,1,0,.41.92.92,0,0,1-.09.28.44.44,0,0,1-.17.16h-.63l-.16.56a1.85,1.85,0,0,0,.47,0,1.4,1.4,0,0,0,.53-.11.77.77,0,0,0,.33-.29,1.2,1.2,0,0,0,.19-.45,3.66,3.66,0,0,0,.1-.56v-.12h7.44V46.83h-.58Zm-43.94-2.92a1.62,1.62,0,0,0-.52-.38,1.84,1.84,0,0,0-.69-.13h-.43v.58H177a.92.92,0,0,1,.39.09.84.84,0,0,1,.48.56,1.55,1.55,0,0,1,0,.43v1.67h-2.66V52h3.29V49.75a1.93,1.93,0,0,0-.1-.63,1.2,1.2,0,0,0-.27-.51m32,4.68h.6V52.7h-.6Zm-3.51-1.85h-.59a2.1,2.1,0,0,1-.61-.09,1.65,1.65,0,0,1-.5-.28,1.44,1.44,0,0,1-.34-.43,1.24,1.24,0,0,1-.11-.57,1.18,1.18,0,0,1,.13-.56,1.37,1.37,0,0,1,.35-.45,1.54,1.54,0,0,1,.5-.28,1.37,1.37,0,0,1,.57-.09h.57Zm6.21-3.34h-.58v3.34H210.1V48.11h-.57v3.34h-2.31V48.11h-.91a3.27,3.27,0,0,0-1,.14,2.43,2.43,0,0,0-.76.41,1.76,1.76,0,0,0-.48.63,1.89,1.89,0,0,0-.17.78,1.77,1.77,0,0,0,.2.87,1.67,1.67,0,0,0,.52.6,2.34,2.34,0,0,0,.75.35,3.57,3.57,0,0,0,.92.12h6.52V48.1Zm-3.72,5.22h.6v-.59h-.6Zm-38.62-6.46h-.6v.59h.6Zm59.46,0h-.6v.59h.6Zm-22.77,0h-.6v.59h.6ZM173.94,53.3h.6v-.58h-.6Zm32.26-6.44h-.6v.59h.6Zm-34.66,0H171v.59h.6Zm1.38,6.44h.55v-.58h-.54Zm-2-1.85h-.56a2.15,2.15,0,0,1-.61-.09,1.46,1.46,0,0,1-.5-.28,1.18,1.18,0,0,1-.33-.43,1.13,1.13,0,0,1-.12-.57,1.18,1.18,0,0,1,.13-.52,1.51,1.51,0,0,1,.35-.44,1.44,1.44,0,0,1,.51-.29,1.84,1.84,0,0,1,.57-.09H171Zm3.46-3.34h-.57v3.34h-2.3V48.11h-.91a3.27,3.27,0,0,0-1,.14,2.43,2.43,0,0,0-.76.41,1.76,1.76,0,0,0-.48.63,1.89,1.89,0,0,0-.17.78,1.77,1.77,0,0,0,.2.87,1.67,1.67,0,0,0,.52.6,2.11,2.11,0,0,0,.76.35,3.44,3.44,0,0,0,.91.12h3.78ZM224.28,52h.57V46.81h-.52ZM231,46.81h-.6v.58h.6Z"/><polygon class="cls-11" points="168.81 55.81 169.54 55.81 169.54 57.88 171.51 55.81 172.4 55.81 170.68 57.58 172.48 59.93 171.59 59.93 170.18 58.08 169.54 58.73 169.54 59.93 168.81 59.93 168.81 55.81"/><rect class="cls-11" x="173.13" y="55.81" width="0.73" height="4.11"/><polygon class="cls-11" points="174.98 55.81 175.65 55.81 177.86 58.65 177.86 55.81 178.57 55.81 178.57 59.93 177.97 59.93 175.69 56.99 175.69 59.93 174.98 59.93 174.98 55.81"/><path class="cls-11" d="M179.47,57.88h0a2.1,2.1,0,0,1,2.07-2.13h.05a2.28,2.28,0,0,1,1.59.56l-.45.55a1.65,1.65,0,0,0-1.16-.44,1.4,1.4,0,0,0-1.31,1.45h0a1.38,1.38,0,0,0,1.26,1.47h.15a1.73,1.73,0,0,0,1-.31v-.77h-1v-.63h1.76v1.72a2.55,2.55,0,0,1-1.72.64,2,2,0,0,1-2.18-1.91v-.2"/><path class="cls-11" d="M185.87,59.26a1.3,1.3,0,0,0,1.43-1.16,1.62,1.62,0,0,0,0-.22h0a1.32,1.32,0,0,0-1.21-1.4h-1v2.81h.81Zm-1.54-3.45h1.54a2.05,2.05,0,0,1,2.19,1.92v.12h0A2.06,2.06,0,0,1,186,59.92h-1.68Z"/><path class="cls-11" d="M192.3,57.88h0A1.41,1.41,0,0,0,191,56.42h-.06a1.39,1.39,0,0,0-1.39,1.39v.06h0a1.41,1.41,0,0,0,1.35,1.46h.06a1.4,1.4,0,0,0,1.39-1.4v0m-3.56,0h0a2.17,2.17,0,0,1,4.32,0h0a2.17,2.17,0,0,1-4.32,0"/><polygon class="cls-11" points="193.97 55.81 194.74 55.81 195.99 57.75 197.24 55.81 198.03 55.81 198.03 59.93 197.29 59.93 197.29 56.97 195.99 58.91 195.97 58.91 194.67 56.98 194.67 59.93 193.97 59.93 193.97 55.81"/><path class="cls-11" d="M204.22,57.88h0a1.41,1.41,0,0,0-1.35-1.46h-.06a1.39,1.39,0,0,0-1.39,1.39v.06h0a1.41,1.41,0,0,0,1.35,1.46h.06a1.4,1.4,0,0,0,1.39-1.4v0m-3.56,0h0a2.17,2.17,0,0,1,4.32,0h0a2.17,2.17,0,0,1-4.32,0"/><polygon class="cls-11" points="205.89 55.81 208.96 55.81 208.96 56.47 206.61 56.47 206.61 57.59 208.69 57.59 208.69 58.24 206.61 58.24 206.61 59.93 205.89 59.93 205.89 55.81"/><path class="cls-11" d="M211.29,59.33l.43-.52a1.92,1.92,0,0,0,1.3.53c.45,0,.73-.21.73-.52h0c0-.3-.17-.46-.92-.63s-1.37-.47-1.37-1.22h0a1.3,1.3,0,0,1,1.41-1.19,2.29,2.29,0,0,1,1.5.52l-.39.55a1.94,1.94,0,0,0-1.13-.42c-.41,0-.66.22-.66.48h0c0,.32.18.46,1,.66s1.3.52,1.3,1.2h0c0,.77-.61,1.22-1.47,1.22a2.63,2.63,0,0,1-1.71-.66"/><path class="cls-11" d="M217.71,58.28,217,56.64l-.71,1.64Zm-1.05-2.51h.68l1.77,4.16h-.77l-.41-1h-2l-.42,1h-.74Z"/><path class="cls-11" d="M219.58,58.18V55.81h.73v2.33c0,.77.4,1.17,1.05,1.17s1-.39,1-1.14V55.81h.73v2.33A1.65,1.65,0,0,1,221.72,60h-.38a1.62,1.62,0,0,1-1.76-1.48,1.82,1.82,0,0,1,0-.33"/><path class="cls-11" d="M225.71,59.26a1.3,1.3,0,0,0,1.43-1.16,1.62,1.62,0,0,0,0-.22h0a1.31,1.31,0,0,0-1.2-1.4h-1v2.81h.81Zm-1.54-3.45h1.54a2.05,2.05,0,0,1,2.19,1.92v.12h0a2.05,2.05,0,0,1-2.05,2.07h-1.68Z"/><rect class="cls-11" x="228.83" y="55.81" width="0.73" height="4.11"/><path class="cls-11" d="M234.92,58.28l-.72-1.64-.74,1.64Zm-1-2.51h.68l1.81,4.14h-.77l-.42-1h-2l-.42,1h-.75Z"/><path class="cls-11" d="M238.85,57.85c.52,0,.84-.27.84-.69h0c0-.44-.31-.68-.86-.68h-1.05v1.39h1.05Zm-1.79-2h1.84a1.69,1.69,0,0,1,1.19.42,1.26,1.26,0,0,1,.33.88h0a1.3,1.3,0,0,1-1,1.31L240.54,60h-.86l-1-1.49h-.92v1.44H237Z"/><path class="cls-11" d="M243.89,58.28l-.71-1.64-.59,1.64Zm-1-2.51h.68l1.81,4.14h-.77l-.42-1h-2l-.42,1H241Z"/><path class="cls-11" d="M248,59.29c.5,0,.8-.2.8-.56h0c0-.35-.28-.55-.85-.55H246.8v1.13H248Zm-.19-1.75c.47,0,.78-.18.78-.56h0c0-.33-.26-.52-.73-.52h-1.05v1.09Zm-1.71-1.73h1.84a1.48,1.48,0,0,1,1.08.36.92.92,0,0,1,.27.68h0a1,1,0,0,1-.58.91,1,1,0,0,1,.82,1h0c0,.73-.62,1.13-1.53,1.13h-1.92V55.81Z"/><rect class="cls-11" x="250.41" y="55.81" width="0.73" height="4.11"/><path class="cls-11" d="M254.69,58.28,254,56.64l-.7,1.64Zm-1-2.51h.68l1.81,4.14h-.77l-.42-1H253l-.41,1h-.75Z"/><line class="cls-20" x1="148.23" x2="148.23" y2="60"/></g></g></svg>