<?xml version="1.0" encoding="UTF-8"?>
<svg width="75px" height="29px" viewBox="0 0 75 29" version="1.1" xmlns="http://www.w3.org/2000/svg" xmlns:xlink="http://www.w3.org/1999/xlink">
    <!-- Generator: Sketch 52.4 (67378) - http://www.bohemiancoding.com/sketch -->
    <title>Group 9</title>
    <desc>Created with Sketch.</desc>
    <g id="Page-1" stroke="none" stroke-width="1" fill="none" fill-rule="evenodd">
        <g id="Add-CR---Sadad" transform="translate(-927.000000, -863.000000)" fill="#FFFFFF" stroke-width="0.1">
            <g id="Group-6" transform="translate(-16.000000, 209.000000)">
                <g id="Group-48" transform="translate(0.000000, 614.000000)">
                    <g id="Group-8">
                        <g id="Group-9" transform="translate(944.000000, 40.000000)">
                            <g id="Group-4" transform="translate(0.000000, -0.000000)" stroke="#000000">
                                <polygon id="Fill-1" points="18.3626069 14.7858391 19.446331 13.9801435 16.4421931 10.0840565 15.2951586 11.3638391"></polygon>
                                <polygon id="Fill-2" points="23.2082069 20.1937087 24.0163448 19.9062304 20.7266897 15.6394478 19.6963448 16.276187"></polygon>
                                <polygon id="Fill-3" points="-5.2846616e-14 28.4328609 9.88882759 21.0832522 7.38248276 20.1930783"></polygon>
                                <polygon id="Fill-4" points="10.8937241 16.2756826 9.86462069 15.6402043 6.57372414 19.906987 7.38310345 20.1932043"></polygon>
                                <polygon id="Fill-5" points="15.295531 11.3633348 14.1484966 10.0835522 11.1431172 13.9796391 12.2280828 14.7853348"></polygon>
                                <polygon id="Fill-6" points="16.7115724 18.1183174 20.7026069 21.0838826 23.2077103 20.1937087 19.6970897 16.276187"></polygon>
                                <polygon id="Fill-7" points="18.3626069 14.7858391 15.2951586 11.3638391 12.2289517 14.7858391 15.2951586 17.0654913"></polygon>
                                <polygon id="Fill-8" points="16.7115724 18.1183174 19.6970897 16.276187 18.3626069 14.7858391 15.2951586 17.0654913"></polygon>
                                <polygon id="Fill-9" points="15.295531 17.064987 12.2280828 14.7853348 10.8936 16.2756826 13.8778759 18.117813"></polygon>
                                <polygon id="Fill-10" points="15.295531 18.9919739 19.4206345 21.5389304 20.7017379 21.0837565 16.7119448 18.1181913"></polygon>
                                <polygon id="Fill-11" points="11.1701793 21.5384261 15.2952828 23.0035565 19.4203862 21.5384261 15.2952828 18.9914696"></polygon>
                                <polygon id="Fill-12" points="10.8937241 16.2756826 7.38310345 20.1932043 9.8882069 21.0833783 13.878 18.117813"></polygon>
                                <polygon id="Fill-13" points="13.8783724 18.1183174 9.88857931 21.0838826 11.1696828 21.5377957 15.2960276 18.9921"></polygon>
                                <polygon id="Fill-14" points="15.295531 8.59597826 12.5793931 5.07563043 11.4844966 7.11067391 14.1484966 10.0838043"></polygon>
                                <polygon id="Fill-15" points="15.3140276 -0.000252173913 18.0252 5.05583478 18.0276828 5.05205217"></polygon>
                                <polygon id="Fill-16" points="19.4464552 13.9805217 21.8609379 12.1850435 19.1236966 7.09113043 16.4423172 10.0831739"></polygon>
                                <polygon id="Fill-17" points="20.7265655 15.6397 22.9722207 14.2540043 21.8611862 12.1849174 19.4467034 13.9803957"></polygon>
                                <polygon id="Fill-18" points="15.3140276 -0.000252173913 12.5805103 5.0760087 15.2954069 8.59635652 18.0252 5.05583478"></polygon>
                                <polygon id="Fill-19" points="14.1487448 10.0834261 11.4847448 7.11029565 8.74377931 12.1966435 11.1433655 13.979513"></polygon>
                                <polygon id="Fill-20" points="9.86449655 15.6397 7.63249655 14.2628304 4.91015172 19.3163957 6.57484138 19.9064826"></polygon>
                                <polygon id="Fill-21" points="-8.92619312e-14 28.4328609 6.57434483 19.9068609 4.91089655 19.315513"></polygon>
                                <polygon id="Fill-22" points="11.1434897 13.9798913 8.74390345 12.1970217 7.63286897 14.2623261 9.86362759 15.6404565"></polygon>
                                <polygon id="Fill-23" points="18.0292966 5.0615087 18.0255724 5.05520435 15.2957793 8.59572609 16.4428138 10.0835522 19.1241931 7.09024783 18.0280552 5.05142174 18.0255724 5.05520435"></polygon>
                                <polygon id="Fill-24" points="15.2950345 23.0029261 30.590069 28.4334913 19.4213793 21.5377957"></polygon>
                                <polygon id="Fill-25" points="24.0167172 19.9068609 25.6913379 19.3129913 22.9727172 14.2543826 20.7270621 15.6400783"></polygon>
                                <polygon id="Fill-26" points="-4.35207426e-14 28.4328609 15.2950345 23.0022957 11.169931 21.5384261"></polygon>
                                <polygon id="Fill-27" points="24.0162207 19.9072391 30.5905655 28.4319783 30.5905655 28.4307174 25.6908414 19.3121087"></polygon>
                                <polygon id="Fill-28" points="20.7024828 21.0828739 30.590069 28.4324826 30.590069 28.4312217 23.2088276 20.1927"></polygon>
                            </g>
                            <g id="Group-47" transform="translate(41.000000, 1.000000)" stroke="#030608">
                                <path d="M19,8.81288934 L26.0510544,8.81288934 L26.0510544,6.60199343 C26.0510544,6.16162646 26.1889259,5.78468683 26.466272,5.47117454 C26.7436182,5.15766225 27.0770749,5 27.466642,5 L29.5828092,5 C29.9723764,5 30.305833,5.15766225 30.5831792,5.47117454 C30.8605253,5.78468683 31,6.16162646 31,6.60199343 L31,10.3333333 L19,10.3333333 L19,11.3480495 C19,11.8040178 18.8599034,12.192712 18.5813205,12.5141322 C18.3027375,12.8374212 17.9677939,13 17.5764895,13 L15,13 L15,11.4209297 L17.5764895,11.4209297 C17.6247987,11.4209297 17.6489533,11.3947676 17.6489533,11.3480495 L17.6489533,5 L19,5 L19,8.81288934 Z M29.5828092,6.53312946 L27.466642,6.53312946 C27.4185473,6.53312946 27.3961031,6.55487598 27.3961031,6.60199343 L27.3961031,8.7313399 C27.3961031,8.7857062 27.4185473,8.81288934 27.466642,8.81288934 L29.5828092,8.81288934 C29.6293008,8.81288934 29.6549513,8.7857062 29.6549513,8.7313399 L29.6549513,6.60199343 C29.6549513,6.55487598 29.6293008,6.53312946 29.5828092,6.53312946 Z" id="Combined-Shape"></path>
                                <path d="M6,5.02542476 L6.16568253,5.02542476 L6.16568253,8.60640508 C6.16568253,8.66507762 6.1865231,8.69245813 6.22820424,8.69245813 L7.77179576,8.69245813 C7.81208753,8.69245813 7.83431747,8.66507762 7.83431747,8.60640508 L7.83431747,5 L9,5 L9,5.02542476 L9.16568253,5.02542476 L9.16568253,8.60640508 C9.16568253,8.66507762 9.1865231,8.69245813 9.22820424,8.69245813 L10.7717958,8.69245813 C10.8120875,8.69245813 10.8343175,8.66507762 10.8343175,8.60640508 L10.8343175,5 L12,5 L12,8.60640508 C12,9.08165261 11.8791247,9.48844884 11.6387635,9.82679379 C11.3984022,10.1651387 11.109413,10.3333333 10.7717958,10.3333333 L9.22820424,10.3333333 C8.9532074,10.3333333 8.71047265,10.2217451 8.5,9.99751187 C8.28952735,10.2217451 8.0467926,10.3333333 7.77179576,10.3333333 L6.22820424,10.3333333 C6.14949308,10.3333333 6.073425,10.3241915 6,10.3058829 L6,11.2966507 C6,11.769378 5.87045861,12.1732057 5.6128648,12.5023923 C5.35527099,12.8334928 5.04258487,13 4.67331745,13 L2.32519357,13 C1.95741513,13 1.64472901,12.8334928 1.3871352,12.5023923 C1.12805241,12.1732057 1,11.769378 1,11.2966507 L1,5 L2.2581894,5 L2.2581894,11.2966507 C2.2581894,11.354067 2.2820131,11.3808612 2.32519357,11.3808612 L4.67331745,11.3808612 C4.7179869,11.3808612 4.74032162,11.354067 4.74032162,11.2966507 L4.74032162,5 L6,5 L6,5.02542476 Z" id="Combined-Shape"></path>
                                <polygon id="Fill-40" points="14.077 10 14.923 10 14.923 0 14.077 0"></polygon>
                                <path d="M24.5938865,17 C24.9816594,17 25.3117904,17.1401538 25.5860262,17.4186872 C25.8620087,17.6989947 26,18.0342992 26,18.428149 L26,23 L21.4061135,23 C21.0183406,23 20.6882096,22.8598462 20.4122271,22.5813128 C20.1379913,22.3010053 20,21.9657008 20,21.571851 L20,19.3169722 L24.6655022,19.3169722 L24.6655022,18.428149 C24.6655022,18.3802484 24.641048,18.355411 24.5938865,18.355411 L20,18.355411 L20,17 L24.5938865,17 Z M24.6655022,21.644589 L24.6655022,20.6830278 L21.3344978,20.6830278 L21.3344978,21.571851 C21.3344978,21.6197516 21.3572052,21.644589 21.4061135,21.644589 L24.6655022,21.644589 Z" id="Fill-42"></path>
                                <path d="M16.5007457,17 L20,17 L20,18.3558119 L16.5007457,18.3558119 C16.4504101,18.3558119 16.4243102,18.378882 16.4243102,18.4285714 L16.4243102,23 L15,23 L15,18.4285714 C15,18.0346051 15.1454139,17.6992014 15.4418345,17.418811 C15.7345265,17.1401952 16.0868755,17 16.5007457,17" id="Fill-43"></path>
                                <polygon id="Fill-44" points="5 18.4664126 8.21292776 15 10 15 10 23 8.36290663 23 8.36290663 17.132444 5 20.7436875 1.6244191 17.132444 1.6244191 23 0 23 0 15 1.77439797 15"></polygon>
                                <path d="M32,18.4274627 L32,18.6853731 L30.664903,18.6853731 L30.664903,18.4274627 C30.664903,18.3791045 30.6402116,18.3540299 30.5943563,18.3540299 L27.4074074,18.3540299 C27.3580247,18.3540299 27.3333333,18.3791045 27.3333333,18.4274627 L27.3333333,19.2549254 C27.3333333,19.2961194 27.3580247,19.3176119 27.4074074,19.3176119 L30.5943563,19.3176119 C30.9876543,19.3176119 31.319224,19.4573134 31.5925926,19.7349254 C31.8641975,20.0143284 32,20.3510448 32,20.7432836 L32,21.5725373 C32,21.9647761 31.8641975,22.3014925 31.5925926,22.5808955 C31.319224,22.8602985 30.9876543,23 30.5943563,23 L27.4074074,23 C27.0194004,23 26.6878307,22.8602985 26.4126984,22.5808955 C26.1375661,22.3014925 26,21.9647761 26,21.5725373 L26,21.3128358 L27.3333333,21.3128358 L27.3333333,21.5725373 C27.3333333,21.6208955 27.3580247,21.6441791 27.4074074,21.6441791 L30.5943563,21.6441791 C30.6402116,21.6441791 30.664903,21.6208955 30.664903,21.5725373 L30.664903,20.7432836 C30.664903,20.7038806 30.6402116,20.6823881 30.5943563,20.6823881 L27.4074074,20.6823881 C27.0194004,20.6823881 26.6878307,20.5426866 26.4126984,20.2632836 C26.1375661,19.9838806 26,19.6471642 26,19.2549254 L26,18.4274627 C26,18.0352239 26.1375661,17.6985075 26.4126984,17.4191045 C26.6878307,17.1397015 27.0194004,17 27.4074074,17 L30.5943563,17 C30.9876543,17 31.319224,17.1397015 31.5925926,17.4191045 C31.8641975,17.6985075 32,18.0352239 32,18.4274627" id="Fill-45"></path>
                                <path d="M10.4061135,23 C10.0183406,23 9.68820961,22.8598048 9.4139738,22.581189 C9.13799127,22.3025732 9,21.9653949 9,21.5714286 L9,17 L13.5921397,17 C13.9816594,17 14.3117904,17.1384206 14.5877729,17.4170364 C14.8620087,17.6974268 15,18.0346051 15,18.4267968 L15,20.6823425 L10.3344978,20.6823425 L10.3344978,21.5714286 C10.3344978,21.621118 10.358952,21.6441881 10.4061135,21.6441881 L15,21.6441881 L15,23 L10.4061135,23 Z M10.3344978,18.3540373 L10.3344978,19.3158829 L13.6655022,19.3158829 L13.6655022,18.4267968 C13.6655022,18.378882 13.641048,18.3540373 13.5921397,18.3540373 L10.3344978,18.3540373 Z" id="Fill-46"></path>
                                <polygon id="Fill-29" points="28 11.4315 28 11.8115 31 11.5685 31 11.1885"></polygon>
                            </g>
                        </g>
                    </g>
                </g>
            </g>
        </g>
    </g>
</svg>