<svg xmlns="http://www.w3.org/2000/svg" viewBox="0 0 258 60"><defs><style>.cls-1{fill:#5cb8da;}.cls-2{fill:#6dc497;}.cls-3{fill:#4167b0;}.cls-4{fill:#2a9182;}.cls-5{fill:#2987b6;}.cls-6{fill:#175478;}.cls-7{fill:#2250a3;}.cls-8{fill:#263c96;}.cls-9{fill:#2fa35d;}.cls-10{fill:#3d3b3d;}.cls-11{fill:#7f7f81;}.cls-12{fill:#27397b;}.cls-13{fill:#9d9fa2;}.cls-14{fill:#d3da2c;}.cls-15{fill:#76bc43;}.cls-16{fill:#2cb5bb;}.cls-17{fill:#59b65e;}.cls-18{fill:#358aca;}.cls-19{fill:#1e3c72;}.cls-20{fill:none;stroke:#3d3b3d;stroke-miterlimit:10;stroke-width:0.5px;}</style></defs><title>En_logo_landscape</title><g id="Layer_2" data-name="Layer 2"><g id="Layer_1-2" data-name="Layer 1"><polygon class="cls-1" points="170.04 31.2 172.36 29.5 165.92 21.28 163.46 23.98 170.04 31.2"/><polygon class="cls-2" points="180.42 42.61 182.16 42.01 175.1 33 172.9 34.34 180.42 42.61"/><polygon class="cls-1" points="146.5 42.61 130.68 60 151.87 44.49 146.5 42.61"/><polygon class="cls-3" points="154.03 34.34 151.82 33 144.77 42.01 146.5 42.61 154.03 34.34"/><polygon class="cls-1" points="163.46 23.98 161 21.28 154.56 29.5 156.89 31.2 163.46 23.98"/><polygon class="cls-4" points="166.5 38.23 175.05 44.49 180.42 42.61 172.9 34.35 166.5 38.23"/><polygon class="cls-5" points="170.04 31.2 163.46 23.98 156.89 31.2 163.46 36.01 170.04 31.2"/><polygon class="cls-1" points="166.5 38.23 172.9 34.35 170.04 31.2 163.46 36.01 166.5 38.23"/><polygon class="cls-1" points="163.46 36.01 156.89 31.2 154.03 34.34 160.43 38.23 163.46 36.01"/><polygon class="cls-2" points="163.46 40.08 172.3 45.45 175.05 44.49 166.5 38.23 163.46 40.08"/><polygon class="cls-3" points="154.62 45.45 163.46 48.54 172.31 45.45 163.46 40.08 154.62 45.45"/><polygon class="cls-3" points="154.03 34.34 146.5 42.61 151.87 44.49 160.43 38.23 154.03 34.34"/><polygon class="cls-3" points="160.43 38.23 151.87 44.49 154.62 45.45 163.46 40.08 160.43 38.23"/><polygon class="cls-3" points="163.46 18.14 157.64 10.71 155.29 15.01 161 21.28 163.46 18.14"/><polygon points="169.32 10.66 163.5 0 169.31 10.67 169.32 10.66"/><polygon class="cls-4" points="172.36 29.5 177.54 25.71 171.67 14.96 165.92 21.28 172.36 29.5"/><polygon class="cls-2" points="175.1 33 179.92 30.08 177.54 25.71 172.36 29.5 175.1 33"/><polygon class="cls-6" points="169.31 10.67 163.5 0 157.64 10.71 163.46 18.14 169.31 10.67"/><polygon class="cls-7" points="161 21.28 155.29 15.01 149.42 25.74 154.56 29.5 161 21.28"/><polygon class="cls-8" points="151.82 33 147.04 30.1 141.2 40.76 144.77 42.01 151.82 33"/><polygon class="cls-3" points="144.77 42.01 141.2 40.76 130.68 60 144.77 42.01"/><polygon class="cls-3" points="154.56 29.5 149.42 25.74 147.04 30.1 151.82 33 154.56 29.5"/><polygon class="cls-2" points="169.32 10.68 169.31 10.67 163.46 18.14 165.92 21.28 171.67 14.96 169.32 10.66 169.31 10.67 169.32 10.68"/><polygon class="cls-3" points="163.46 48.54 196.25 60 172.3 45.45 163.46 48.54"/><polygon class="cls-9" points="182.16 42.01 185.74 40.76 179.92 30.08 175.1 33 182.16 42.01"/><polygon class="cls-2" points="154.62 45.45 130.68 60 163.46 48.54 154.62 45.45"/><polygon class="cls-2" points="196.25 60 185.74 40.76 182.16 42.01 196.25 60"/><polygon class="cls-1" points="175.05 44.49 196.25 60 180.42 42.61 175.05 44.49"/><polygon class="cls-10" points="257.57 26.28 257.57 27.29 253.04 27.93 253.04 26.93 257.57 26.28"/><path class="cls-10" d="M236.45,16.27v9a2.36,2.36,0,0,1-2.35,2.35h-4.26V25.41h4.26c.08,0,.12,0,.12-.1v-9Z"/><path class="cls-10" d="M255.65,18.62h-3.51c-.08,0-.12,0-.12.11v3.12a.11.11,0,0,0,.12.12h3.51a.11.11,0,0,0,.12-.12V18.73c0-.07,0-.11-.12-.11m0-2.25A2.36,2.36,0,0,1,258,18.73V24.2H236.43V22h13.36V18.73a2.36,2.36,0,0,1,2.35-2.36Z"/><path class="cls-10" d="M222,21.34v-4.9h2.23v4.9a2.36,2.36,0,0,1-2.35,2.35h-3a2.36,2.36,0,0,1-2.35-2.35V16.47h2.23v4.87a.11.11,0,0,0,.12.12h3a.11.11,0,0,0,.12-.12"/><path class="cls-10" d="M216.88,21.34v-4.9h2.23v4.9a2.34,2.34,0,0,1-2.35,2.35h-2.95a2.36,2.36,0,0,1-2.35-2.35V16.47h2.23v4.87a.11.11,0,0,0,.12.12h2.95a.11.11,0,0,0,.12-.12"/><path class="cls-10" d="M206.91,16.41v8.75a.11.11,0,0,0,.12.12h4.19a.11.11,0,0,0,.12-.12V16.41h2.25v8.75a2.36,2.36,0,0,1-2.37,2.37H207a2.36,2.36,0,0,1-2.37-2.37V16.41Z"/><rect class="cls-10" x="227.05" y="10.31" width="2.25" height="13.38"/><path class="cls-10" d="M245.33,39.15V37.71h-5.08V39a.1.1,0,0,0,.11.11Zm-.11-7a2.15,2.15,0,0,1,2.14,2.14v6.85h-7A2.13,2.13,0,0,1,238.22,39V35.66h7.11V34.33a.1.1,0,0,0-.11-.11h-7v-2Z"/><path class="cls-10" d="M231.64,32.13h5v2h-5c-.07,0-.1,0-.1.11v6.85h-2V34.28a2.15,2.15,0,0,1,2.14-2.15"/><polygon class="cls-10" points="210.85 35.01 214.9 30.17 217.15 30.17 217.15 41.34 215.08 41.34 215.08 33.14 210.85 38.19 206.6 33.14 206.6 41.34 204.55 41.34 204.55 30.17 206.78 30.17 210.85 35.01"/><path class="cls-10" d="M258,34.31v.38h-2v-.38a.1.1,0,0,0-.11-.11h-4.81a.1.1,0,0,0-.11.11v1.23c0,.06,0,.09.11.09h4.81A2.1,2.1,0,0,1,258,37.75V39a2.1,2.1,0,0,1-2.12,2.12h-4.81A2.12,2.12,0,0,1,249,39v-.39h2V39a.1.1,0,0,0,.11.11h4.81A.1.1,0,0,0,256,39V37.75c0-.06,0-.09-.11-.09h-4.81A2.13,2.13,0,0,1,249,35.54V34.31a2.12,2.12,0,0,1,2.12-2.12h4.81a2,2,0,0,1,1.51.62,2,2,0,0,1,.61,1.5"/><path class="cls-10" d="M220.73,34.17v1.44h5.08V34.27c0-.07,0-.1-.11-.1Zm.11,7A2.15,2.15,0,0,1,218.7,39V32.13h7a2.15,2.15,0,0,1,2.14,2.14v3.39h-7.11V39a.1.1,0,0,0,.11.11h7v2Z"/><path class="cls-11" d="M64,34.07v.06c0,4.33-3.16,7.51-8.28,7.51a11.16,11.16,0,0,1-9-3.91l3.48-3.31a7,7,0,0,0,5.55,2.75A2.88,2.88,0,0,0,59,34.69c0-.1,0-.21,0-.31h0c0-2-1.67-3.08-4.51-3.08h-2.1l-.79-3.21L59,20.68l-3,1.95h-8V18.26H63.64v3.81l-5.81,5.54C61,28.13,64,29.77,64,34M49.56,7.83A3.59,3.59,0,0,1,53,4.09h2.5l-.62.32V10A6.23,6.23,0,0,0,55,11.1a2.56,2.56,0,0,0,.16.49H53.2A3.63,3.63,0,0,1,49.56,8V7.83Zm3.59,4.76h2.1v-.68a1.49,1.49,0,0,0,.6.51,2.15,2.15,0,0,0,.91.18H75.25V3.1h-1v8.49H56.88a1.25,1.25,0,0,1-.47-.07.73.73,0,0,1-.29-.26,1.41,1.41,0,0,1-.16-.49c0-.24,0-.48,0-.71v-7H53.2a4.65,4.65,0,0,0-4.7,4.59v.14h0a4.6,4.6,0,0,0,4.5,4.7h.17M82.7,2.1H80.48V1.3a1.3,1.3,0,0,1,.31-1A1.23,1.23,0,0,1,81.68,0h.72V.7h-.69a.42.42,0,0,0-.33.08.47.47,0,0,0-.08.3V1.3h1.38v.79Zm2.61,10.6a3.32,3.32,0,0,1-.83-.11l.27-1h.5a1.09,1.09,0,0,0,.47-.08.61.61,0,0,0,.29-.26,1.42,1.42,0,0,0,.07-.42c0-.23,0-.47,0-.71v-7h1v7.05a6.12,6.12,0,0,1-.09,1,2.13,2.13,0,0,1-.33.81,1.42,1.42,0,0,1-.6.51,2,2,0,0,1-.91.18M55.92,2.09h-1v-1h1ZM78.09,5.56a2.32,2.32,0,0,1,.62-.77,2.7,2.7,0,0,1,.87-.5,3,3,0,0,1,1-.17H82.2l-.57.29V8.92h-1a3.49,3.49,0,0,1-1.06-.16,2.67,2.67,0,0,1-.87-.45,2.16,2.16,0,0,1-.59-.75,2.29,2.29,0,0,1-.19-1,2.28,2.28,0,0,1,.23-1m0,3.56a4,4,0,0,0,1.31.6,6.62,6.62,0,0,0,1.6.2h.26l.34-.71v1a1.28,1.28,0,0,1-.45,1.13,2.17,2.17,0,0,1-1.31.34,3.84,3.84,0,0,1-.83-.09,5.34,5.34,0,0,1-.8-.26l-.31,1a8.83,8.83,0,0,0,1,.33,3.82,3.82,0,0,0,.9.1A2.82,2.82,0,0,0,82,12a2.59,2.59,0,0,0,.66-1.88v-7H81.07a5.23,5.23,0,0,0-1.71.27,3.92,3.92,0,0,0-1.3.71,3.26,3.26,0,0,0-.85,1.1A3,3,0,0,0,77,6.52a3.14,3.14,0,0,0,.34,1.53,2.93,2.93,0,0,0,.91,1m-24.3-7h-1v-1h1Zm-10.43,1h1v9.45h-.85L36.92,4l.6,1.39v7.1h-1V3.09h1l6.37,8.13-.45-1.16ZM4.08,12.61,0,3.09H1.19L1.77,4.5l2.8,6.73.26.64-.11-1L8,3.09H9.13L5,12.61ZM22.17,3.09h1.07v9.44H22.17ZM33.61,7.83a3.71,3.71,0,0,1-3.52,3.9h-.18A3.76,3.76,0,0,1,26.16,8V7.83h0a3.72,3.72,0,0,1,3.52-3.91h.2a3.77,3.77,0,0,1,3.75,3.77c0,.05,0,.1,0,.15Zm-3.7-4.91a4.8,4.8,0,0,0-4.86,4.75v.16h0a4.84,4.84,0,0,0,9.67.5,4.17,4.17,0,0,0,0-.5h0A4.76,4.76,0,0,0,30.09,3h-.2m-9.53,7h0c0,1.62-1.31,2.61-3.24,2.61a5.52,5.52,0,0,1-3.91-1.51l.67-.78a4.51,4.51,0,0,0,3.24,1.3c1.31,0,2.12-.68,2.12-1.6h0c0-.88-.47-1.39-2.47-1.8S13.59,7,13.59,5.49h0a2.79,2.79,0,0,1,2.95-2.62h.17A5,5,0,0,1,20,4l-.62.83a4.23,4.23,0,0,0-2.68-1c-1.22,0-2,.68-2,1.53h0c0,.89.48,1.39,2.61,1.84s3.09,1.22,3.09,2.61m-8.75,2.6H10.55V3.09h1.07Zm62.26,1.06h1v1h-1Zm-2,0h1v1h-1ZM8.46,36.88h8.78v4.36H.21v-4L7.83,31c2.9-2.36,4-3.6,4-5.52a2.82,2.82,0,0,0-2.63-3,3.69,3.69,0,0,0-.47,0c-1.77,0-3,1-4.7,3.08L.51,22.72C2.78,19.64,5,18,9.13,18c4.77,0,7.93,2.79,7.93,7.08h0c0,3.84-2,5.74-6,8.89L5.93,37.82l-1,.76Zm76-7A6.87,6.87,0,0,1,77.89,37h-.32a7,7,0,0,1-7-7,1.93,1.93,0,0,1,0-.24v-.06a6.87,6.87,0,0,1,6.59-7.14h.32a7,7,0,0,1,7,7,1.69,1.69,0,0,1,0,.23ZM77.57,17.91A11.88,11.88,0,0,0,65.32,29.4c0,.13,0,.25,0,.37v.07A11.75,11.75,0,0,0,77,41.59h.47a11.88,11.88,0,0,0,12.25-11.5c0-.12,0-.25,0-.37v-.07A11.74,11.74,0,0,0,78,17.9h-.47"/><polygon class="cls-12" points="31 16.39 32.16 17.52 31.05 18.68 29.88 17.55 31 16.39"/><polygon class="cls-13" points="33.67 17.55 34.84 18.68 35.96 17.52 34.8 16.39 33.67 17.55"/><polygon class="cls-14" points="32.03 19.02 32.93 19.89 33.8 18.99 32.91 18.12 32.03 19.02"/><polygon class="cls-15" points="35.36 19.51 36.27 20.39 37.13 19.48 36.23 18.61 35.36 19.51"/><polygon class="cls-14" points="30.54 20.4 31.46 21.27 32.32 20.37 31.42 19.5 30.54 20.4"/><polygon class="cls-16" points="34.5 21.38 33.6 20.52 34.46 19.6 35.37 20.48 34.5 21.38"/><polygon class="cls-15" points="33.03 22.16 32.4 21.55 33.01 20.92 33.65 21.52 33.03 22.16"/><polygon class="cls-17" points="34.81 22.03 35.45 22.64 36.06 22 35.42 21.39 34.81 22.03"/><rect class="cls-18" x="40.08" y="16.96" width="2" height="2" transform="translate(-2.57 7.72) rotate(-10.41)"/><rect class="cls-19" x="37.61" y="17.85" width="1.62" height="1.62" transform="translate(-2.73 7.23) rotate(-10.38)"/><rect class="cls-16" x="40.68" y="20.06" width="1.62" height="1.62" transform="translate(-3.09 7.83) rotate(-10.4)"/><rect class="cls-14" x="38.47" y="20.34" width="1.25" height="1.25" transform="translate(-3.14 7.4) rotate(-10.4)"/><rect class="cls-13" x="40.87" y="22.67" width="1.25" height="1.25" transform="translate(-3.52 7.87) rotate(-10.4)"/><rect class="cls-16" x="36.61" y="20.84" width="1.25" height="1.25" transform="matrix(0.98, -0.18, 0.18, 0.98, -3.26, 7.07)"/><rect class="cls-15" x="38.85" y="22.45" width="1.25" height="1.25" transform="translate(-3.52 7.5) rotate(-10.4)"/><rect class="cls-13" x="37.25" y="22.63" width="0.89" height="0.89" transform="translate(-3.55 7.2) rotate(-10.42)"/><rect class="cls-17" x="38.93" y="24.43" width="0.89" height="0.89" transform="translate(-3.84 7.5) rotate(-10.38)"/><polygon class="cls-12" points="45.96 23.66 45.1 25.47 46.91 26.33 47.77 24.52 45.96 23.66"/><polygon class="cls-16" points="43.38 22.82 42.69 24.27 44.15 24.96 44.84 23.52 43.38 22.82"/><polygon class="cls-15" points="44.56 26.4 43.87 27.86 45.33 28.55 46.02 27.09 44.56 26.4"/><polygon class="cls-14" points="42.66 25.32 42.13 26.44 43.26 26.98 43.8 25.85 42.66 25.32"/><polygon class="cls-14" points="43.23 28.61 42.7 29.75 43.83 30.28 44.37 29.15 43.23 28.61"/><polygon class="cls-18" points="40.86 24.64 40.33 25.77 41.46 26.31 41.99 25.17 40.86 24.64"/><polygon class="cls-13" points="41.73 27.26 41.2 28.39 42.33 28.93 42.87 27.79 41.73 27.26"/><rect class="cls-15" x="40.13" y="26.6" width="0.89" height="0.89" transform="translate(-1.31 52.03) rotate(-64.5)"/><rect class="cls-16" x="40.44" y="29.03" width="0.89" height="0.89" transform="translate(-3.31 53.7) rotate(-64.53)"/><polygon class="cls-18" points="46.94 32.34 45.18 33.31 46.14 35.07 47.9 34.09 46.94 32.34"/><polygon class="cls-16" points="45.33 30.15 43.92 30.92 44.69 32.34 46.12 31.56 45.33 30.15"/><polygon class="cls-16" points="44.2 33.75 42.79 34.53 43.56 35.94 44.98 35.16 44.2 33.75"/><polygon class="cls-12" points="43.3 31.76 42.19 32.36 42.79 33.45 43.9 32.85 43.3 31.76"/><polygon class="cls-17" points="41.83 34.77 40.72 35.37 41.32 36.48 42.42 35.87 41.83 34.77"/><polygon class="cls-19" points="42.23 30.17 41.12 30.77 41.73 31.86 42.83 31.26 42.23 30.17"/><polygon class="cls-14" points="41.4 32.79 40.3 33.4 40.9 34.5 42.01 33.9 41.4 32.79"/><rect class="cls-13" x="40.14" y="31.51" width="0.89" height="0.89" transform="translate(-10.35 23.4) rotate(-28.68)"/><rect class="cls-16" x="38.97" y="33.65" width="0.89" height="0.89" transform="translate(-11.53 23.1) rotate(-28.68)"/><rect class="cls-15" x="40.51" y="39.82" width="2.01" height="2.01" transform="translate(-4.08 77.03) rotate(-82.97)"/><rect class="cls-19" x="40.91" y="37.14" width="1.6" height="1.62" transform="translate(-1.07 74.69) rotate(-82.95)"/><rect class="cls-16" x="37.88" y="39.39" width="1.62" height="1.62" transform="translate(-5.98 73.64) rotate(-82.92)"/><rect class="cls-15" x="38.7" y="37.27" width="1.25" height="1.25" transform="translate(-3.1 72.28) rotate(-82.97)"/><rect class="cls-13" x="35.73" y="38.86" width="1.25" height="1.25" transform="translate(-7.28 70.73) rotate(-82.97)"/><rect class="cls-13" x="38.77" y="35.36" width="1.25" height="1.25" transform="translate(-1.16 70.65) rotate(-82.94)"/><rect class="cls-15" x="36.55" y="36.99" width="1.25" height="1.27" transform="translate(-4.74 69.89) rotate(-82.93)"/><rect class="cls-13" x="37.28" y="35.48" width="0.89" height="0.89" transform="translate(-2.55 68.96) rotate(-82.96)"/><rect class="cls-13" x="35.06" y="36.53" width="0.89" height="0.89" transform="translate(-5.54 67.68) rotate(-82.96)"/><polygon class="cls-14" points="34.68 43.61 33.2 42.24 31.84 43.72 33.31 45.09 34.68 43.61"/><polygon class="cls-15" points="34.42 15.49 32.93 14.13 31.56 15.6 33.03 16.97 34.42 15.49"/><polygon class="cls-16" points="36.26 41.41 35.07 40.31 33.97 41.5 35.16 42.59 36.26 41.41"/><polygon class="cls-15" points="32.47 41.47 31.29 40.38 30.19 41.55 31.37 42.65 32.47 41.47"/><polygon class="cls-18" points="34.09 39.99 33.17 39.13 32.3 40.05 33.23 40.9 34.09 39.99"/><polygon class="cls-14" points="29.83 38.68 30.75 39.54 29.89 40.46 28.97 39.61 29.83 38.68"/><polygon class="cls-14" points="35.28 38.47 34.35 37.61 33.49 38.54 34.42 39.39 35.28 38.47"/><polygon class="cls-13" points="32.5 38.51 31.57 37.66 30.73 38.58 31.65 39.44 32.5 38.51"/><polygon class="cls-19" points="33.03 36.86 33.67 37.46 33.07 38.11 32.42 37.51 33.03 36.86"/><polygon class="cls-13" points="30.61 36.41 31.26 37.01 30.66 37.66 30.01 37.06 30.61 36.41"/><rect class="cls-18" x="23.89" y="40.16" width="2.01" height="2.01" transform="translate(-7.6 5.69) rotate(-11.33)"/><rect class="cls-16" x="26.9" y="39.63" width="1.62" height="1.62" transform="translate(-7.41 6.24) rotate(-11.34)"/><rect class="cls-15" x="23.79" y="37.49" width="1.62" height="1.62" transform="translate(-7.06 5.59) rotate(-11.35)"/><rect class="cls-14" x="26.36" y="37.53" width="1.25" height="1.25" transform="translate(-6.98 6.06) rotate(-11.35)"/><rect class="cls-12" x="28.22" y="36.99" width="1.25" height="1.25" transform="translate(-6.84 6.41) rotate(-11.35)"/><rect class="cls-18" x="25.94" y="35.42" width="1.25" height="1.25" transform="translate(-6.57 5.93) rotate(-11.35)"/><rect class="cls-15" x="27.92" y="35.58" width="0.89" height="0.89" transform="matrix(0.98, -0.2, 0.2, 0.98, -6.51, 6.26)"/><rect class="cls-13" x="26.21" y="33.82" width="0.89" height="0.89" transform="translate(-6.22 5.91) rotate(-11.34)"/><polygon class="cls-16" points="20.09 35.58 20.92 33.75 19.08 32.92 18.25 34.74 20.09 35.58"/><polygon class="cls-14" points="22.68 36.37 23.34 34.9 21.89 34.23 21.21 35.71 22.68 36.37"/><polygon class="cls-18" points="21.43 32.81 22.09 31.34 20.62 30.68 19.95 32.13 21.43 32.81"/><rect class="cls-16" x="22.42" y="32.4" width="1.25" height="1.25" transform="translate(-16.57 40.29) rotate(-65.48)"/><polygon class="cls-13" points="24.88 36.73 25.41 35.58 24.26 35.06 23.74 36.2 24.88 36.73"/><rect class="cls-12" x="21.78" y="29.12" width="1.25" height="1.25" transform="translate(-13.96 37.76) rotate(-65.45)"/><rect class="cls-17" x="24.22" y="33.06" width="1.25" height="1.25" transform="translate(-16.11 42.28) rotate(-65.44)"/><rect class="cls-14" x="23.31" y="30.45" width="1.25" height="1.25" transform="translate(-14.28 39.92) rotate(-65.43)"/><rect class="cls-19" x="24.97" y="31.65" width="0.89" height="0.89" transform="translate(-14.35 41.84) rotate(-65.41)"/><rect class="cls-15" x="24.61" y="29.23" width="0.89" height="0.89" transform="translate(-12.35 40.12) rotate(-65.42)"/><polygon class="cls-16" points="18.96 26.91 20.71 25.91 19.71 24.18 17.96 25.17 18.96 26.91"/><polygon class="cls-15" points="20.59 29.07 22 28.27 21.19 26.88 19.8 27.68 20.59 29.07"/><polygon class="cls-19" points="21.68 25.45 23.07 24.65 22.28 23.25 20.87 24.05 21.68 25.45"/><polygon class="cls-18" points="22.61 27.44 23.71 26.81 23.08 25.72 21.99 26.34 22.61 27.44"/><polygon class="cls-15" points="24.04 24.39 25.13 23.78 24.51 22.68 23.41 23.31 24.04 24.39"/><polygon class="cls-16" points="23.71 29.02 24.79 28.39 24.18 27.3 23.08 27.92 23.71 29.02"/><polygon class="cls-14" points="24.49 26.36 25.59 25.75 24.96 24.65 23.87 25.27 24.49 26.36"/><polygon class="cls-13" points="25.91 27.36 25.14 27.81 24.71 27.04 25.48 26.59 25.91 27.36"/><polygon class="cls-15" points="27.06 25.2 26.29 25.63 25.86 24.87 26.63 24.43 27.06 25.2"/><rect class="cls-15" x="23.24" y="17.33" width="2.01" height="2.01" transform="translate(3.43 40.49) rotate(-83.9)"/><rect class="cls-13" x="23.29" y="20.41" width="1.6" height="1.62" transform="translate(0.43 42.92) rotate(-83.9)"/><rect class="cls-16" x="26.28" y="18.11" width="1.6" height="1.62" transform="translate(5.39 43.83) rotate(-83.9)"/><rect class="cls-14" x="25.86" y="20.6" width="1.25" height="1.25" transform="translate(2.56 45.3) rotate(-83.9)"/><rect class="cls-18" x="28.79" y="18.96" width="1.25" height="1.25" transform="translate(6.82 46.76) rotate(-83.92)"/><rect class="cls-16" x="25.8" y="22.52" width="1.25" height="1.25" transform="translate(0.6 46.97) rotate(-83.9)"/><rect class="cls-15" x="28" y="20.84" width="1.25" height="1.25" transform="translate(4.24 47.65) rotate(-83.89)"/><rect class="cls-19" x="27.69" y="22.73" width="0.89" height="0.89" transform="translate(2.1 48.69) rotate(-83.9)"/><rect class="cls-13" x="29.92" y="21.87" width="0.88" height="0.88" transform="translate(4.83 50.02) rotate(-83.66)"/><path class="cls-11" d="M39.33,30.84a3.66,3.66,0,0,0-.79-.33,4.65,4.65,0,0,0-2.19-.16,4.28,4.28,0,0,0-1,.25h-.1l-.5.22-.43.23c-.33.2-.65.42-1,.65a20.64,20.64,0,0,1-.1-5.09h0c.76.48.55,1.81.39,2.19h0A2.35,2.35,0,0,0,34,26.19h0a2.26,2.26,0,0,1,.34.35,2.13,2.13,0,0,1,.43,1.14,4.17,4.17,0,0,1,0,.5v.12h0a2.18,2.18,0,0,0,0-2,2.56,2.56,0,0,0-.43-.59l-.17-.16h.17a1.75,1.75,0,0,1,.43.22,1.86,1.86,0,0,1,.6.81,2.06,2.06,0,0,1,.14.73h0a1.8,1.8,0,0,0-.16-1.5,1.73,1.73,0,0,0-.6-.57,2.11,2.11,0,0,0-.43-.2h0a3.08,3.08,0,0,1,.43,0,1.58,1.58,0,0,1,.6.24,1.3,1.3,0,0,1,.41.43h0a1.19,1.19,0,0,0-.42-.81,1.5,1.5,0,0,0-.6-.31,1.55,1.55,0,0,0-.43,0,1.21,1.21,0,0,0-.53.09h0a1,1,0,0,1,.54-.38,1,1,0,0,1,.43,0,.94.94,0,0,1,.36.08h0a1.32,1.32,0,0,0-.8-.43,1.06,1.06,0,0,0-1,.51h0l-.14-.29a3.52,3.52,0,0,1-.24-.78h0a3.5,3.5,0,0,1-.23.78l-.15.29h0A1.11,1.11,0,0,0,31,24.11a1.15,1.15,0,0,0-.3.28h0a1.14,1.14,0,0,1,1.3.35h0a1.57,1.57,0,0,0-1.69.42,1.18,1.18,0,0,0-.28.66h0a1.35,1.35,0,0,1,.26-.32,1.75,1.75,0,0,1,1.37-.37h0a1.83,1.83,0,0,0-1.37,1.1,2,2,0,0,0,0,1.22h0a1.81,1.81,0,0,1,1.31-1.78h0a2.21,2.21,0,0,0-.6,2.74h0a2.24,2.24,0,0,1,.75-2.1h0a2.34,2.34,0,0,0,.29,2.6h0c-.16-.37-.36-1.7.39-2.19h0a20.25,20.25,0,0,1-.1,5.1,7.85,7.85,0,0,0-1.89-1.12l-.24-.08a5.12,5.12,0,0,0-1.78-.25,4.68,4.68,0,0,0-1.84.47l-.19.1h.17a5,5,0,0,1,1.84-.19,5.61,5.61,0,0,1,1.79.49,9,9,0,0,1,2.12,1.38,24.39,24.39,0,0,1-2.12,1.81h-.07a.49.49,0,0,0-.69-.12.48.48,0,0,0-.19.29.48.48,0,0,0,.09.43.71.71,0,0,0,.86.13,11.88,11.88,0,0,0,2.35-2l.24-.22.24.22,1.19,1.11.43.38a3.22,3.22,0,0,0,.6.42.8.8,0,0,0,1,0h0a.55.55,0,0,0,.09-.43.5.5,0,0,0-.38-.37.51.51,0,0,0-.51.2l-.21-.13-.6-.48-.43-.38-1-.86a11,11,0,0,1,1-.73l.43-.28.6-.32a6.56,6.56,0,0,1,1-.37,5.06,5.06,0,0,1,2.19-.13,5.49,5.49,0,0,1,.78.18h0"/><path class="cls-11" d="M32.24,52h.57V46.81h-.57ZM17.1,51.45l-.9-2.2a2.25,2.25,0,0,1,.68-.41,2,2,0,0,1,.73-.13,2.08,2.08,0,0,1,.77.16,2.29,2.29,0,0,1,.65.39l-.9,2.2Zm-3.18,0h-.59a2,2,0,0,1-.61-.09,1.54,1.54,0,0,1-.51-.26,1.18,1.18,0,0,1-.34-.43,1.29,1.29,0,0,1-.13-.58,1.14,1.14,0,0,1,.13-.57,1.24,1.24,0,0,1,.35-.44,1.68,1.68,0,0,1,.5-.29,1.61,1.61,0,0,1,.58-.1h.59Zm16.06,0H29a1.94,1.94,0,0,1-.79-.14,1.12,1.12,0,0,1-.46-.43,2.44,2.44,0,0,0,0-.54V48.48h-.52v2a1.17,1.17,0,0,1-.28.8,1,1,0,0,1-.8.3,1.44,1.44,0,0,1-.46-.08,1.25,1.25,0,0,1-.37-.22,1.06,1.06,0,0,1-.32-.72v-2h-.58v2a1.2,1.2,0,0,1-.07.46.83.83,0,0,1-.23.3.85.85,0,0,1-.31.17,1.09,1.09,0,0,1-.36,0H22.35V48.48h-.57v3h-3l1-2.41a3.66,3.66,0,0,0-.5-.38,4.07,4.07,0,0,0-.53-.31,2.92,2.92,0,0,0-.56-.21,2.16,2.16,0,0,0-.56-.08,2.1,2.1,0,0,0-.56.08,2.69,2.69,0,0,0-.56.21,2.9,2.9,0,0,0-.54.31,4.45,4.45,0,0,0-.48.38l1,2.41h-2V48.11h-.92a2.92,2.92,0,0,0-1,.16,2.27,2.27,0,0,0-.76.42,1.82,1.82,0,0,0-.48.62,1.92,1.92,0,0,0-.17.78,1.78,1.78,0,0,0,.2.88,1.67,1.67,0,0,0,.52.6,2.31,2.31,0,0,0,.75.34,4.06,4.06,0,0,0,.92.11h.35v.15a.77.77,0,0,1-.26.65,1.26,1.26,0,0,1-.73.2h-.48a4,4,0,0,1-.49-.17l-.23.52.59.18a2.26,2.26,0,0,0,.52,0,1.64,1.64,0,0,0,1.22-.4,1.51,1.51,0,0,0,.38-1.09V52h9a1.62,1.62,0,0,0,.74-.18,1.47,1.47,0,0,0,.53-.49,1.44,1.44,0,0,0,.58.54,1.81,1.81,0,0,0,.86.19,2,2,0,0,0,.89-.18,1.32,1.32,0,0,0,.56-.56,1.44,1.44,0,0,0,.18.25,1.39,1.39,0,0,0,.27.21,1.56,1.56,0,0,0,.41.15,1.41,1.41,0,0,0,.41,0h1.67V46.68H30v4.59Zm51.86-.26a1.58,1.58,0,0,1-.33.48A1.37,1.37,0,0,1,81,52a1.57,1.57,0,0,1-.6.12,1.42,1.42,0,0,1-1.06-.44A1.54,1.54,0,0,1,79,50.6a1.87,1.87,0,0,1,.12-.58,1.6,1.6,0,0,1,.32-.49,1.32,1.32,0,0,1,.46-.32,1.27,1.27,0,0,1,.6-.12,1.67,1.67,0,0,1,.62.12,1.52,1.52,0,0,1,.48.31,1.58,1.58,0,0,1,.33.48,1.48,1.48,0,0,1,.11.62,1.39,1.39,0,0,1-.11.6m-5.61,0a1.43,1.43,0,0,1-.81.79,1.54,1.54,0,0,1-1.19,0,1.67,1.67,0,0,1-.47-.33,1.46,1.46,0,0,1-.41-1A1.71,1.71,0,0,1,73.5,50a1.55,1.55,0,0,1,.32-.48,1.43,1.43,0,0,1,.47-.33,1.36,1.36,0,0,1,.6-.11,1.43,1.43,0,0,1,.61.11,1.55,1.55,0,0,1,.48.32,1.47,1.47,0,0,1,.33.48,1.41,1.41,0,0,1,.11.61,1.36,1.36,0,0,1-.11.6m-14.06.26h-.58a2.15,2.15,0,0,1-.61-.09,1.47,1.47,0,0,1-.49-.27,1.27,1.27,0,0,1-.34-.43,1.29,1.29,0,0,1-.12-.58,1.24,1.24,0,0,1,.13-.56,1.51,1.51,0,0,1,.35-.44,1.68,1.68,0,0,1,.5-.29,1.84,1.84,0,0,1,.57-.09h.58V51.5Zm22.17,0H82.35a2,2,0,0,0,.18-.85,2.15,2.15,0,0,0-.16-.83,2,2,0,0,0-1.11-1.11,2.15,2.15,0,0,0-.83-.16,2,2,0,0,0-.81.17,2.11,2.11,0,0,0-1.3,2,1.62,1.62,0,0,0,0,.44,2.16,2.16,0,0,0,.13.41h-1.7a2.09,2.09,0,0,0,.2-.92,2.15,2.15,0,0,0-.16-.83,2,2,0,0,0-1.11-1.11,2.15,2.15,0,0,0-.83-.16,2,2,0,0,0-.81.17,2.06,2.06,0,0,0-1.25,1.95,1.62,1.62,0,0,0,0,.44,1.87,1.87,0,0,0,.13.4H71.09v-4.6h-.57v4.59H68.68v-.89a2.16,2.16,0,0,0-.09-.62,1.41,1.41,0,0,0-.28-.51,1.48,1.48,0,0,0-.51-.38,1.71,1.71,0,0,0-.71-.12H64.48l1.08-2.07h-.62l-1,2.06a1.39,1.39,0,0,0,.1.33,1.06,1.06,0,0,0,.17.26h2.94a1.09,1.09,0,0,1,.47.08.74.74,0,0,1,.33.22.76.76,0,0,1,.17.32,2.94,2.94,0,0,1,0,.42v.89H62.73V48.11h-.91a3.27,3.27,0,0,0-1,.14,2.43,2.43,0,0,0-.76.41,1.76,1.76,0,0,0-.48.63,1.89,1.89,0,0,0-.17.78,1.77,1.77,0,0,0,.2.87,1.67,1.67,0,0,0,.52.6,2.11,2.11,0,0,0,.76.35,3.44,3.44,0,0,0,.91.12H73.28a2.11,2.11,0,0,0,.67.48,1.88,1.88,0,0,0,.84.19,2.36,2.36,0,0,0,.87-.17,2.07,2.07,0,0,0,.69-.49h2.54a2.11,2.11,0,0,0,.66.49,2,2,0,0,0,.84.18,2.27,2.27,0,0,0,.86-.17,2.09,2.09,0,0,0,.69-.48h2.94V46.82H84.3v4.59Zm2.26.58h.57V46.86H86.6Zm-42.59,1.3h.6v-.59h-.6Zm5.65-1.84-.9-2.2a2.11,2.11,0,0,1,1.41-.54A2,2,0,0,1,51,49a2.25,2.25,0,0,1,.65.39l-.9,2.2Zm4.1,0H51.31l1-2.41a5.85,5.85,0,0,0-.49-.38,4.17,4.17,0,0,0-.54-.31,2.92,2.92,0,0,0-.56-.21,2,2,0,0,0-1.12,0,2.92,2.92,0,0,0-.56.21,3.6,3.6,0,0,0-.54.31,4.45,4.45,0,0,0-.48.38l1,2.41H47V48.11h-.57v4.06a2.8,2.8,0,0,1,0,.41,1.31,1.31,0,0,1-.09.28.44.44,0,0,1-.17.16h-.63l-.16.56a1.85,1.85,0,0,0,.47,0,1.31,1.31,0,0,0,.52-.11.74.74,0,0,0,.34-.29,1.39,1.39,0,0,0,.19-.45,3.66,3.66,0,0,0,.1-.56v-.12h7.43V46.83h-.57ZM9.9,48.62a1.62,1.62,0,0,0-.52-.38,1.84,1.84,0,0,0-.69-.13H8.26v.58h.5a.93.93,0,0,1,.4.09.84.84,0,0,1,.48.56,1.55,1.55,0,0,1,0,.43v1.67H7V52h3.28V49.75a1.69,1.69,0,0,0-.09-.63,1.2,1.2,0,0,0-.27-.51m32,4.68h.6V52.7h-.6Zm-3.51-1.85h-.59a2.1,2.1,0,0,1-.61-.09,1.65,1.65,0,0,1-.5-.28,1.44,1.44,0,0,1-.34-.43,1.24,1.24,0,0,1-.11-.57,1.08,1.08,0,0,1,.13-.56,1.37,1.37,0,0,1,.35-.45,1.6,1.6,0,0,1,.49-.28,1.44,1.44,0,0,1,.58-.09h.57Zm6.21-3.34H44v3.34H41.85V48.11h-.57v3.34H39V48.11h-.91a3.18,3.18,0,0,0-1,.14,2.43,2.43,0,0,0-.76.41,1.76,1.76,0,0,0-.48.63,1.89,1.89,0,0,0-.17.78,1.77,1.77,0,0,0,.2.87,1.67,1.67,0,0,0,.52.6,2.24,2.24,0,0,0,.75.35,3.57,3.57,0,0,0,.92.12h6.52V48.1ZM40.9,53.32h.6v-.59h-.6ZM2.28,46.86h-.6v.59h.6Zm59.46,0h-.6v.59h.6ZM39,46.86h-.6v.59H39ZM5.69,53.3h.6v-.58h-.6ZM38,46.86h-.6v.59H38Zm-34.66,0H2.7v.59h.6ZM4.67,53.3h.55v-.58H4.68Zm-2-1.85H2.15a2.1,2.1,0,0,1-.61-.09,1.46,1.46,0,0,1-.5-.28,1.32,1.32,0,0,1-.34-.43,1.24,1.24,0,0,1-.11-.57,1.18,1.18,0,0,1,.13-.52,1.24,1.24,0,0,1,.35-.44,1.44,1.44,0,0,1,.51-.29,1.84,1.84,0,0,1,.57-.09h.58Zm3.46-3.34H5.6v3.34H3.3V48.11H2.39a3.27,3.27,0,0,0-1,.14,2.43,2.43,0,0,0-.76.41,1.76,1.76,0,0,0-.48.63,1.89,1.89,0,0,0-.17.78,1.77,1.77,0,0,0,.2.87,1.67,1.67,0,0,0,.52.6,2.14,2.14,0,0,0,.75.35,3.57,3.57,0,0,0,.92.12H6.17ZM56,52h.57V46.81h-.52Zm6.73-5.21h-.6v.58h.6Z"/><polygon class="cls-11" points="0.56 55.81 1.29 55.81 1.29 57.88 3.26 55.81 4.15 55.81 2.43 57.58 4.23 59.93 3.34 59.93 1.93 58.08 1.29 58.73 1.29 59.93 0.56 59.93 0.56 55.81"/><rect class="cls-11" x="4.88" y="55.81" width="0.73" height="4.11"/><polygon class="cls-11" points="6.73 55.81 7.39 55.81 9.61 58.65 9.61 55.81 10.32 55.81 10.32 59.93 9.72 59.93 7.43 56.99 7.43 59.93 6.73 59.93 6.73 55.81"/><path class="cls-11" d="M11.22,57.88h0a2.1,2.1,0,0,1,2.07-2.13h.05a2.28,2.28,0,0,1,1.59.56l-.45.55a1.67,1.67,0,0,0-1.16-.44A1.4,1.4,0,0,0,12,57.87h0a1.37,1.37,0,0,0,1.26,1.47h.15a1.73,1.73,0,0,0,1-.31v-.77H13.36v-.63h1.76v1.72a2.56,2.56,0,0,1-1.73.64,2,2,0,0,1-2.17-1.91,1.34,1.34,0,0,1,0-.2"/><path class="cls-11" d="M17.62,59.26a1.3,1.3,0,0,0,1.43-1.16.81.81,0,0,0,0-.22h0a1.3,1.3,0,0,0-1.2-1.4h-1v2.81h.81Zm-1.54-3.45h1.54a2.06,2.06,0,0,1,2.19,1.92v.12h0a2.07,2.07,0,0,1-2.06,2.07H16.08Z"/><path class="cls-11" d="M24.05,57.88h0a1.41,1.41,0,0,0-1.36-1.46h-.05a1.4,1.4,0,0,0-1.4,1.39.13.13,0,0,0,0,.06h0a1.41,1.41,0,0,0,1.35,1.46h0a1.4,1.4,0,0,0,1.4-1.4v0m-3.56,0h0a2.17,2.17,0,0,1,4.32,0h0a2.17,2.17,0,0,1-4.32,0"/><polygon class="cls-11" points="25.72 55.81 26.49 55.81 27.74 57.75 28.99 55.81 29.77 55.81 29.77 59.93 29.04 59.93 29.04 56.97 27.74 58.91 27.71 58.91 26.42 56.98 26.42 59.93 25.72 59.93 25.72 55.81"/><path class="cls-11" d="M36,57.88h0a1.41,1.41,0,0,0-1.36-1.46h0a1.4,1.4,0,0,0-1.4,1.39.13.13,0,0,0,0,.06h0a1.41,1.41,0,0,0,1.35,1.46h0a1.4,1.4,0,0,0,1.4-1.4v0m-3.56,0h0a2.17,2.17,0,0,1,4.32,0h0a2.17,2.17,0,0,1-4.32,0"/><polygon class="cls-11" points="37.64 55.81 40.7 55.81 40.7 56.47 38.36 56.47 38.36 57.59 40.44 57.59 40.44 58.24 38.36 58.24 38.36 59.93 37.64 59.93 37.64 55.81"/><path class="cls-11" d="M43,59.33l.43-.52a1.92,1.92,0,0,0,1.3.53c.45,0,.73-.21.73-.52h0c0-.3-.17-.46-.92-.63s-1.37-.47-1.37-1.22h0a1.3,1.3,0,0,1,1.41-1.19,2.3,2.3,0,0,1,1.5.52l-.4.55a1.88,1.88,0,0,0-1.12-.42c-.41,0-.66.22-.66.48h0c0,.32.18.46,1,.66s1.3.52,1.3,1.2h0c0,.77-.61,1.22-1.47,1.22A2.63,2.63,0,0,1,43,59.33"/><path class="cls-11" d="M49.45,58.28l-.71-1.64L48,58.28Zm-1-2.51h.68l1.77,4.16h-.77l-.41-1h-2l-.42,1h-.74Z"/><path class="cls-11" d="M51.33,58.18V55.81h.73v2.33c0,.77.39,1.17,1,1.17s1-.39,1-1.14V55.81h.73v2.33A1.65,1.65,0,0,1,53.47,60h-.38a1.62,1.62,0,0,1-1.76-1.48,1.82,1.82,0,0,1,0-.33"/><path class="cls-11" d="M57.46,59.26a1.3,1.3,0,0,0,1.43-1.16,1.62,1.62,0,0,0,0-.22h0a1.32,1.32,0,0,0-1.21-1.4h-1v2.81h.81Zm-1.54-3.45h1.54a2.05,2.05,0,0,1,2.19,1.92v.12h0a2.06,2.06,0,0,1-2,2.07H55.92Z"/><rect class="cls-11" x="60.58" y="55.81" width="0.73" height="4.11"/><path class="cls-11" d="M66.67,58.28,66,56.64l-.74,1.64Zm-1-2.51h.67l1.82,4.14h-.77l-.42-1H65l-.41,1h-.75Z"/><path class="cls-11" d="M70.6,57.85c.52,0,.84-.27.84-.69h0c0-.44-.31-.68-.86-.68h-1v1.39h1Zm-1.79-2h1.84a1.65,1.65,0,0,1,1.18.42,1.26,1.26,0,0,1,.34.88h0a1.3,1.3,0,0,1-1,1.31L72.29,60h-.86l-1-1.49h-.92v1.44h-.73Z"/><path class="cls-11" d="M75.64,58.28l-.71-1.64-.59,1.64Zm-1-2.51h.68l1.81,4.14h-.77l-.42-1H74l-.42,1h-.74Z"/><path class="cls-11" d="M79.75,59.29c.5,0,.8-.2.8-.56h0c0-.35-.28-.55-.85-.55H78.55v1.13h1.2Zm-.2-1.75c.47,0,.79-.18.79-.56h0c0-.33-.26-.52-.73-.52h-1v1.09Zm-1.7-1.73h1.84a1.48,1.48,0,0,1,1.08.36.92.92,0,0,1,.27.68h0a1,1,0,0,1-.59.91,1,1,0,0,1,.83,1h0c0,.73-.62,1.13-1.53,1.13H77.83V55.81Z"/><rect class="cls-11" x="82.16" y="55.81" width="0.73" height="4.11"/><path class="cls-11" d="M86.44,58.28l-.72-1.64L85,58.28Zm-1-2.51h.68l1.81,4.14h-.77l-.42-1H84.77l-.42,1h-.74Z"/><line class="cls-20" x1="110.68" x2="110.68" y2="60"/></g></g></svg>