<?xml version="1.0" encoding="utf-8"?>
<!-- Generator: Adobe Illustrator 22.0.1, SVG Export Plug-In . SVG Version: 6.00 Build 0)  -->
<svg version="1.1" id="Layer_1" xmlns="http://www.w3.org/2000/svg" xmlns:xlink="http://www.w3.org/1999/xlink" x="0px" y="0px"
	 viewBox="0 0 79.2 60.5" style="enable-background:new 0 0 79.2 60.5;" xml:space="preserve">
<style type="text/css">
	.st0{fill:#FFFFFF;}
</style>
<title>logo-poweredby</title>
<g id="Layer_2_1_">
	<g id="Layer_1-2">
		<path class="st0" d="M13.6,52.8c-0.2-0.2-0.4-0.3-0.6-0.2H0.9c-0.2,0-0.4,0.1-0.6,0.2C0.1,52.9,0,53.2,0,53.4
			c0,0.2,0.1,0.4,0.2,0.6c0.2,0.2,0.4,0.2,0.6,0.2h5.8c-0.2,0.3-0.3,0.7-0.4,1.1c-0.1,0.4-0.1,0.7-0.2,1.1v3.1
			c0,0.5,0.3,0.8,0.8,0.8c0,0,0,0,0.1,0c0.5,0,0.8-0.4,0.8-0.8c0,0,0,0,0,0v-3c0-0.2,0-0.4,0.1-0.7c0-0.2,0.1-0.5,0.3-0.7
			c0.1-0.2,0.3-0.4,0.5-0.5c0.3-0.2,0.6-0.3,0.9-0.3h3.6c0.2,0,0.4-0.1,0.6-0.3c0.1-0.2,0.2-0.4,0.2-0.6
			C13.9,53.2,13.8,53,13.6,52.8z"/>
		<path class="st0" d="M49.6,55.1c-0.1-0.4-0.3-0.9-0.6-1.2c-0.3-0.4-0.6-0.7-1-0.9c-0.4-0.3-0.8-0.4-1.3-0.4h-8
			c-0.5,0-1,0.1-1.4,0.3c-0.4,0.2-0.7,0.5-1,0.9c-0.3,0.4-0.5,0.8-0.7,1.2c-0.1,0.4-0.2,0.9-0.2,1.3c0,0.5,0.1,0.9,0.2,1.3
			c0.1,0.5,0.3,0.9,0.6,1.3c0.3,0.4,0.6,0.7,1,0.9c0.4,0.2,0.8,0.4,1.3,0.4h2.1c0.5,0,0.8-0.4,0.8-0.9c0-0.2-0.1-0.4-0.2-0.6
			c-0.2-0.2-0.4-0.2-0.6-0.2H39c-0.3,0-0.7-0.1-1-0.2c-0.2-0.1-0.4-0.3-0.6-0.5c-0.1-0.2-0.2-0.5-0.3-0.7C37,56.9,37,56.7,37,56.4
			c0-0.2,0-0.5,0.1-0.7c0.1-0.2,0.1-0.5,0.3-0.7c0.2-0.2,0.4-0.4,0.6-0.5c0.3-0.2,0.7-0.2,1-0.2h7.1c0.3,0,0.7,0.1,1,0.2
			c0.2,0.1,0.5,0.3,0.6,0.5c0.1,0.2,0.2,0.4,0.3,0.7c0.1,0.2,0.1,0.5,0.1,0.7c0,0.2,0,0.5-0.1,0.7c0,0.3-0.2,0.5-0.3,0.7
			c-0.2,0.2-0.4,0.4-0.6,0.5c-0.3,0.2-0.7,0.2-1,0.2h-1.3c-0.1,0-0.3-0.1-0.4-0.2c-0.1-0.1-0.2-0.3-0.2-0.4v-0.7
			c0-0.2-0.1-0.4-0.2-0.6c-0.2-0.2-0.4-0.2-0.6-0.2c-0.2,0-0.4,0.1-0.6,0.2c-0.2,0.2-0.2,0.4-0.2,0.6v0.9c0,0.3,0.1,0.6,0.2,0.8
			c0.1,0.3,0.3,0.5,0.5,0.7c0.2,0.2,0.4,0.4,0.7,0.5c0.3,0.1,0.6,0.2,0.8,0.2h1.8c0.5,0,1-0.1,1.4-0.4c0.4-0.2,0.7-0.5,1-0.9
			c0.3-0.4,0.5-0.8,0.7-1.2c0.1-0.4,0.2-0.9,0.2-1.4C49.8,56,49.7,55.5,49.6,55.1z"/>
		<path class="st0" d="M63.3,59.2c0-0.1-0.1-0.2-0.2-0.3L59,53.4c-0.2-0.3-0.5-0.5-0.8-0.6c-0.3-0.1-0.7-0.2-1-0.2
			c-0.3,0-0.7,0.1-1,0.2c-0.3,0.2-0.6,0.4-0.8,0.6L51.3,59c-0.1,0.1-0.2,0.3-0.2,0.5c0,0.2,0.1,0.4,0.2,0.6c0.2,0.2,0.4,0.2,0.6,0.2
			c0.2,0,0.5-0.1,0.6-0.3l4-5.3c0.1-0.1,0.2-0.2,0.3-0.3c0.1-0.1,0.2-0.2,0.4-0.2c0.1,0,0.3,0.1,0.4,0.2c0.1,0.1,0.2,0.2,0.3,0.3
			l4,5.3c0.3,0.4,0.8,0.4,1.1,0.2c0,0,0.1,0,0.1-0.1c0.2-0.2,0.2-0.4,0.2-0.6C63.4,59.4,63.4,59.3,63.3,59.2z"/>
		<path class="st0" d="M79.2,53.4c0-0.2-0.1-0.4-0.2-0.6c-0.2-0.2-0.4-0.2-0.6-0.2c-0.1,0-0.2,0-0.3,0.1l0,0l-0.1,0.1l-0.1,0.1
			c-0.2,0.2-0.3,0.4-0.3,0.6v2.2H67v-2.2c0-0.5-0.4-0.8-0.8-0.8c0,0,0,0,0,0c-0.5,0-0.8,0.4-0.8,0.8c0,0,0,0,0,0v6.1
			c0,0.2,0.1,0.4,0.2,0.6c0.3,0.3,0.9,0.3,1.2,0c0.2-0.2,0.3-0.4,0.3-0.6v-2.2h10.5v2.2c0,0.1,0,0.2,0.1,0.3c0,0,0,0,0,0
			c0,0,0,0.1,0,0.1c0,0.1,0.1,0.1,0.1,0.2c0.2,0.2,0.4,0.2,0.6,0.2c0.2,0,0.4-0.1,0.6-0.2c0.2-0.2,0.3-0.4,0.2-0.6L79.2,53.4
			L79.2,53.4z"/>
		<path class="st0" d="M33.1,52.8c-0.3-0.3-0.9-0.3-1.2,0c-0.2,0.2-0.2,0.4-0.2,0.6v6.1c0,0.2,0.1,0.4,0.2,0.6
			c0.3,0.3,0.9,0.3,1.2,0c0.2-0.2,0.3-0.4,0.3-0.6v-6.1C33.4,53.2,33.3,52.9,33.1,52.8z"/>
		<path class="st0" d="M29.5,53.4c0-0.2-0.1-0.4-0.2-0.6c-0.2-0.2-0.4-0.2-0.6-0.2c-0.1,0-0.2,0-0.3,0.1l0,0l-0.1,0.1l-0.1,0.1
			c-0.2,0.2-0.2,0.4-0.2,0.6v2.2H17.4v-2.2c0-0.2-0.1-0.4-0.2-0.6c-0.3-0.3-0.9-0.3-1.2,0c-0.2,0.2-0.2,0.4-0.2,0.6v6.1
			c0,0.2,0.1,0.4,0.2,0.6c0.2,0.2,0.4,0.3,0.6,0.2c0.2,0,0.4-0.1,0.6-0.2c0.2-0.2,0.3-0.4,0.3-0.6v-2.2h10.4v2.2
			c0,0.1,0,0.2,0.1,0.3c0,0,0,0,0,0c0,0,0,0.1,0,0.1C28,60,28,60,28,60.1c0.2,0.2,0.4,0.2,0.6,0.2c0.2,0,0.4-0.1,0.6-0.2
			c0.2-0.2,0.3-0.4,0.2-0.6L29.5,53.4L29.5,53.4z"/>
		<path class="st0" d="M53.1,15.9c-1.2-0.3-2.4,0.4-2.7,1.6c0,0.2-0.1,0.4-0.1,0.5v3.8c0,0.9,0.6,1.7,1.4,2c3.9,1.4,5.9,5.8,4.4,9.7
			c-1.1,2.9-3.9,4.9-7,4.9h-0.1c-4.1,0-7.5-3.4-7.5-7.5c0-1.4,0.4-2.7,1.1-3.9c0.9-1.4,2.2-2.6,3.8-3.1c0.8-0.3,1.4-1.1,1.4-2V18
			c0-1.2-1-2.2-2.2-2.2c-0.2,0-0.4,0-0.6,0.1c-6.8,1.8-11.5,7.9-11.5,14.9c0,0.2,0,0.5,0,0.7c0.4,8.2,7.1,14.7,15.4,14.7h0.1
			c8.5,0,15.4-6.9,15.4-15.4C64.6,23.8,59.9,17.7,53.1,15.9L53.1,15.9z"/>
		<path class="st0" d="M68.1,6.2h-1.3c-0.8,0-1.5,0.3-2,0.8C64.2,7.5,64,8.2,64,9c0,1.5,1.2,2.8,2.7,2.8c0,0,0,0,0.1,0h1.3
			c0.8,0,1.5-0.3,2-0.8c0.5-0.5,0.8-1.3,0.8-2C70.9,7.4,69.7,6.2,68.1,6.2C68.1,6.2,68.1,6.2,68.1,6.2L68.1,6.2z"/>
		<path class="st0" d="M78.3,6.9c-0.5-0.5-1.3-0.8-2-0.8h-1.3c-0.8,0-1.5,0.3-2,0.8c-1.1,1.1-1.1,2.8,0,3.9c0.5,0.5,1.3,0.8,2,0.8
			h1.3c1.5,0,2.8-1.3,2.7-2.8C79.1,8.1,78.8,7.4,78.3,6.9L78.3,6.9z"/>
		<path class="st0" d="M34.6,41L34.6,41l-10.3-0.1V15.8H12C4.6,15.9,0,21,0.1,31.6c0.1,11,7.1,14.7,12.1,14.7h28.3
			C38.2,45,36.2,43.2,34.6,41z M12.4,40.9c-4.7,0-6.5-5.4-6.5-9.3S7,20.9,12.2,20.9l6.6-0.1v20.1L12.4,40.9z"/>
		<path class="st0" d="M79.2,18.6c0-0.8-0.3-1.5-0.8-2c-0.5-0.5-1.2-0.8-1.9-0.8c-0.8,0-1.5,0.3-2,0.8c-0.5,0.5-0.7,1.3-0.7,2v6.3
			l0,0v8.2c0,4.9-2.4,7.7-7.6,7.8h-2.8C62,43.1,60,45,57.6,46.3h8.9l1.2-0.1c7.2-0.7,11.4-5.4,11.4-12.9v-8.5v-2.6L79.2,18.6z"/>
		<path class="st0" d="M74.2,0.8c-0.5-0.5-1.3-0.8-2-0.8h-1.3c-0.8,0-1.5,0.3-2,0.8c-0.5,0.5-0.8,1.3-0.8,2c0,0.8,0.3,1.5,0.8,2
			c0.5,0.5,1.3,0.8,2,0.8h1.3c0.8,0,1.5-0.3,2-0.8c0.5-0.5,0.8-1.3,0.8-2C75.1,2,74.8,1.3,74.2,0.8z"/>
		<path class="st0" d="M45.6,6.2h-1.3c-1.5,0-2.8,1.2-2.8,2.7c0,0,0,0.1,0,0.1c0,1.5,1.2,2.8,2.7,2.8c0,0,0,0,0,0h1.3
			c1.5,0,2.8-1.3,2.8-2.8c0,0,0,0,0,0c0-0.8-0.3-1.5-0.8-2C47,6.4,46.3,6.1,45.6,6.2z"/>
		<path class="st0" d="M55.9,6.9c-0.5-0.5-1.3-0.8-2-0.8h-1.3c-0.8,0-1.5,0.3-2,0.8c-0.5,0.5-0.8,1.3-0.8,2c0,1.5,1.3,2.8,2.8,2.8
			c0,0,0,0,0,0H54c0.8,0,1.5-0.3,2-0.8c0.5-0.5,0.8-1.3,0.8-2C56.8,8.1,56.5,7.4,55.9,6.9z"/>
		<path class="st0" d="M13.1,6.2h-1.3c-0.8,0-1.5,0.3-2,0.8C9.2,7.5,9,8.2,9,9c0,1.5,1.3,2.8,2.8,2.8c0,0,0,0,0,0h1.3
			c1.5,0,2.8-1.3,2.8-2.8c0,0,0,0,0,0c0-0.8-0.3-1.5-0.8-2C14.5,6.4,13.8,6.1,13.1,6.2z"/>
		<path class="st0" d="M23.3,6.9c-0.5-0.5-1.3-0.8-2-0.8h-1.3c-0.8,0-1.5,0.3-2,0.8c-1.1,1.1-1.1,2.8,0,3.9c0.5,0.5,1.3,0.8,2,0.8
			h1.3c1.5,0,2.8-1.3,2.8-2.8c0,0,0,0,0,0C24.1,8.2,23.9,7.5,23.3,6.9z"/>
	</g>
</g>
</svg>
